<svg xmlns="http://www.w3.org/2000/svg" xmlns:xlink="http://www.w3.org/1999/xlink" viewBox="0 0 1007.34 766.61"><defs><style>.cls-1{fill:none;}.cls-2{isolation:isolate;}.cls-3{fill:url(#Degradado_sin_nombre_19);}.cls-4{clip-path:url(#clip-path);}.cls-10,.cls-129,.cls-130,.cls-131,.cls-133,.cls-138,.cls-139,.cls-140,.cls-141,.cls-144,.cls-147,.cls-150,.cls-151,.cls-152,.cls-154,.cls-155,.cls-156,.cls-5,.cls-6,.cls-7,.cls-8,.cls-9{opacity:0.5;}.cls-129,.cls-133,.cls-134,.cls-138,.cls-141,.cls-144,.cls-147,.cls-150,.cls-151,.cls-152,.cls-154,.cls-156,.cls-6,.cls-7,.cls-8{mix-blend-mode:screen;}.cls-6{fill:url(#Degradado_sin_nombre_18);}.cls-7{fill:url(#Degradado_sin_nombre_18-2);}.cls-8{fill:url(#Degradado_sin_nombre_18-3);}.cls-10,.cls-130,.cls-131,.cls-139,.cls-140,.cls-155,.cls-9{mix-blend-mode:multiply;}.cls-9{fill:url(#Degradado_sin_nombre_18-4);}.cls-10{fill:url(#Degradado_sin_nombre_18-5);}.cls-11{fill:url(#Degradado_sin_nombre_17);}.cls-12{fill:url(#Degradado_sin_nombre_17-2);}.cls-13{fill:url(#Degradado_sin_nombre_17-3);}.cls-14{fill:url(#Degradado_sin_nombre_17-4);}.cls-15{fill:url(#Degradado_sin_nombre_17-5);}.cls-16{fill:url(#Degradado_sin_nombre_17-6);}.cls-17{fill:url(#Degradado_sin_nombre_17-7);}.cls-18{fill:url(#Degradado_sin_nombre_17-8);}.cls-19{fill:url(#Degradado_sin_nombre_17-9);}.cls-20{fill:url(#Degradado_sin_nombre_17-10);}.cls-21{fill:url(#Degradado_sin_nombre_17-11);}.cls-22{fill:url(#Degradado_sin_nombre_17-12);}.cls-23{fill:url(#Degradado_sin_nombre_17-13);}.cls-24{fill:url(#Degradado_sin_nombre_17-14);}.cls-25{fill:url(#Degradado_sin_nombre_17-15);}.cls-26{fill:url(#Degradado_sin_nombre_17-16);}.cls-27{fill:url(#Degradado_sin_nombre_17-17);}.cls-28{fill:url(#Degradado_sin_nombre_17-18);}.cls-29{fill:url(#Degradado_sin_nombre_17-19);}.cls-30{fill:url(#Degradado_sin_nombre_17-20);}.cls-31{fill:url(#Degradado_sin_nombre_17-21);}.cls-32{fill:url(#Degradado_sin_nombre_17-22);}.cls-33{fill:url(#Degradado_sin_nombre_17-23);}.cls-34{fill:url(#Degradado_sin_nombre_17-24);}.cls-35{fill:url(#Degradado_sin_nombre_17-25);}.cls-36{fill:url(#Degradado_sin_nombre_17-26);}.cls-37{fill:url(#Degradado_sin_nombre_17-27);}.cls-38{fill:url(#Degradado_sin_nombre_17-28);}.cls-39{fill:url(#Degradado_sin_nombre_17-29);}.cls-40{fill:url(#Degradado_sin_nombre_17-30);}.cls-41{fill:url(#Degradado_sin_nombre_17-31);}.cls-42{fill:url(#Degradado_sin_nombre_17-32);}.cls-43{fill:url(#Degradado_sin_nombre_17-33);}.cls-44{fill:url(#Degradado_sin_nombre_17-34);}.cls-45{fill:url(#Degradado_sin_nombre_17-35);}.cls-46{fill:url(#Degradado_sin_nombre_17-36);}.cls-47{fill:url(#Degradado_sin_nombre_17-37);}.cls-48{fill:url(#Degradado_sin_nombre_17-38);}.cls-49{fill:url(#Degradado_sin_nombre_17-39);}.cls-50{fill:url(#Degradado_sin_nombre_17-40);}.cls-51{fill:url(#Degradado_sin_nombre_17-41);}.cls-52{fill:url(#Degradado_sin_nombre_17-42);}.cls-53{fill:url(#Degradado_sin_nombre_17-43);}.cls-54{fill:url(#Degradado_sin_nombre_17-44);}.cls-55{fill:url(#Degradado_sin_nombre_17-45);}.cls-56{fill:url(#Degradado_sin_nombre_17-46);}.cls-57{fill:url(#Degradado_sin_nombre_17-47);}.cls-58{fill:url(#Degradado_sin_nombre_17-48);}.cls-59{fill:url(#Degradado_sin_nombre_17-49);}.cls-60{fill:url(#Degradado_sin_nombre_17-50);}.cls-61{fill:url(#Degradado_sin_nombre_17-51);}.cls-62{fill:url(#Degradado_sin_nombre_17-52);}.cls-63{fill:url(#Degradado_sin_nombre_17-53);}.cls-64{fill:url(#Degradado_sin_nombre_17-54);}.cls-65{fill:url(#Degradado_sin_nombre_17-55);}.cls-66{fill:url(#Degradado_sin_nombre_16);}.cls-67{fill:url(#Degradado_sin_nombre_16-2);}.cls-68{fill:url(#Degradado_sin_nombre_16-3);}.cls-69{fill:url(#Degradado_sin_nombre_16-4);}.cls-70{fill:url(#Degradado_sin_nombre_16-5);}.cls-71{fill:url(#Degradado_sin_nombre_16-6);}.cls-72{fill:url(#Degradado_sin_nombre_16-7);}.cls-73{fill:url(#Degradado_sin_nombre_16-8);}.cls-74{fill:url(#Degradado_sin_nombre_16-9);}.cls-75{fill:url(#Degradado_sin_nombre_16-10);}.cls-76{fill:url(#Degradado_sin_nombre_16-11);}.cls-77{fill:url(#Degradado_sin_nombre_16-12);}.cls-78{fill:url(#Degradado_sin_nombre_16-13);}.cls-79{fill:url(#Degradado_sin_nombre_16-14);}.cls-80{fill:url(#Degradado_sin_nombre_16-15);}.cls-81{fill:url(#Degradado_sin_nombre_16-16);}.cls-82{fill:url(#Degradado_sin_nombre_16-17);}.cls-83{fill:url(#Degradado_sin_nombre_16-18);}.cls-84{fill:url(#Degradado_sin_nombre_16-19);}.cls-85{fill:url(#Degradado_sin_nombre_16-20);}.cls-86{fill:url(#Degradado_sin_nombre_16-21);}.cls-87{fill:url(#Degradado_sin_nombre_16-22);}.cls-88{fill:url(#Degradado_sin_nombre_16-23);}.cls-89{fill:url(#Degradado_sin_nombre_16-24);}.cls-90{fill:url(#Degradado_sin_nombre_16-25);}.cls-91{fill:url(#Degradado_sin_nombre_16-26);}.cls-92{fill:url(#Degradado_sin_nombre_16-27);}.cls-93{fill:url(#Degradado_sin_nombre_16-28);}.cls-94{fill:url(#Degradado_sin_nombre_16-29);}.cls-95{fill:url(#Degradado_sin_nombre_16-30);}.cls-96{fill:url(#Degradado_sin_nombre_16-31);}.cls-97{fill:url(#Degradado_sin_nombre_14);}.cls-98{fill:url(#Degradado_sin_nombre_14-2);}.cls-99{fill:url(#Degradado_sin_nombre_14-3);}.cls-100{fill:url(#Degradado_sin_nombre_14-4);}.cls-101{fill:url(#Degradado_sin_nombre_14-5);}.cls-102{fill:url(#Degradado_sin_nombre_14-6);}.cls-103{fill:url(#Degradado_sin_nombre_14-7);}.cls-104{fill:url(#Degradado_sin_nombre_14-8);}.cls-105{fill:url(#Degradado_sin_nombre_14-9);}.cls-106{fill:url(#Degradado_sin_nombre_14-10);}.cls-107{fill:url(#Degradado_sin_nombre_14-11);}.cls-108{fill:url(#Degradado_sin_nombre_14-12);}.cls-109{fill:url(#Degradado_sin_nombre_14-13);}.cls-110{fill:url(#Degradado_sin_nombre_14-14);}.cls-111{fill:url(#Degradado_sin_nombre_14-15);}.cls-112{fill:url(#Degradado_sin_nombre_14-16);}.cls-113{fill:url(#Degradado_sin_nombre_14-17);}.cls-114{fill:url(#Degradado_sin_nombre_14-18);}.cls-115{fill:url(#Degradado_sin_nombre_14-19);}.cls-116{fill:url(#Degradado_sin_nombre_14-20);}.cls-117{fill:url(#Degradado_sin_nombre_14-21);}.cls-118{fill:url(#Degradado_sin_nombre_14-22);}.cls-119{fill:url(#Degradado_sin_nombre_14-23);}.cls-120{fill:url(#Degradado_sin_nombre_14-24);}.cls-121{fill:url(#Degradado_sin_nombre_14-25);}.cls-122{fill:url(#Degradado_sin_nombre_14-26);}.cls-123{fill:url(#Degradado_sin_nombre_14-27);}.cls-124{fill:url(#Degradado_sin_nombre_14-28);}.cls-125{fill:url(#Degradado_sin_nombre_14-29);}.cls-126{fill:url(#Degradado_sin_nombre_13);}.cls-127{fill:url(#Degradado_sin_nombre_13-2);}.cls-128,.cls-129,.cls-130,.cls-134{fill:#c231fa;}.cls-132{fill:#8a0dba;}.cls-133{fill:url(#Degradado_sin_nombre_11);}.cls-135{fill:url(#Degradado_sin_nombre_9);}.cls-136{fill:url(#Degradado_sin_nombre_9-2);}.cls-137,.cls-138{fill:#88e4ef;}.cls-139{fill:#71caeb;}.cls-140{fill:#428ebd;}.cls-141{fill:url(#Degradado_sin_nombre_3);}.cls-142{fill:url(#Degradado_sin_nombre_9-3);}.cls-143{fill:url(#Degradado_sin_nombre_9-4);}.cls-144{fill:url(#Degradado_sin_nombre_3-2);}.cls-145{fill:url(#Degradado_sin_nombre_9-5);}.cls-146{fill:url(#Degradado_sin_nombre_9-6);}.cls-147{fill:url(#Degradado_sin_nombre_3-3);}.cls-148{fill:url(#Degradado_sin_nombre_9-7);}.cls-149{fill:url(#Degradado_sin_nombre_9-8);}.cls-150{fill:url(#Degradado_sin_nombre_3-4);}.cls-151{fill:url(#Degradado_sin_nombre_6);}.cls-152{fill:url(#Degradado_sin_nombre_6-2);}.cls-153,.cls-154,.cls-155{fill:#fcc006;}.cls-156{fill:url(#Degradado_sin_nombre_5);}</style><radialGradient id="Degradado_sin_nombre_19" cx="484.82" cy="330.47" r="318.69" gradientUnits="userSpaceOnUse"><stop offset="0.21" stop-color="#280178"/><stop offset="1" stop-color="#170147"/></radialGradient><clipPath id="clip-path" transform="translate(109.82 80.47)"><rect class="cls-1" width="750" height="500"/></clipPath><linearGradient id="Degradado_sin_nombre_18" x1="122.38" y1="77.6" x2="687.14" y2="328.84" gradientUnits="userSpaceOnUse"><stop offset="0.11" stop-color="#280178" stop-opacity="0"/><stop offset="0.54" stop-color="#280178"/><stop offset="1" stop-color="#280178" stop-opacity="0"/></linearGradient><linearGradient id="Degradado_sin_nombre_18-2" x1="525.39" y1="449.65" x2="781.58" y2="449.65" xlink:href="#Degradado_sin_nombre_18"/><linearGradient id="Degradado_sin_nombre_18-3" x1="156.27" y1="310.51" x2="-216.49" y2="371.79" xlink:href="#Degradado_sin_nombre_18"/><linearGradient id="Degradado_sin_nombre_18-4" x1="-109.82" y1="540.86" x2="797.54" y2="540.86" xlink:href="#Degradado_sin_nombre_18"/><linearGradient id="Degradado_sin_nombre_18-5" x1="-20.28" y1="-0.41" x2="787.83" y2="-0.41" xlink:href="#Degradado_sin_nombre_18"/><radialGradient id="Degradado_sin_nombre_17" cx="698.23" cy="426.68" r="6.93" gradientUnits="userSpaceOnUse"><stop offset="0" stop-color="#022d8f"/><stop offset="0.14" stop-color="#05298d" stop-opacity="0.91"/><stop offset="0.4" stop-color="#0e1f88" stop-opacity="0.68"/><stop offset="0.74" stop-color="#1c0f7f" stop-opacity="0.31"/><stop offset="1" stop-color="#280178" stop-opacity="0"/></radialGradient><radialGradient id="Degradado_sin_nombre_17-2" cx="629.32" cy="274.53" r="2.94" xlink:href="#Degradado_sin_nombre_17"/><radialGradient id="Degradado_sin_nombre_17-3" cx="629.32" cy="230.62" r="2.94" xlink:href="#Degradado_sin_nombre_17"/><radialGradient id="Degradado_sin_nombre_17-4" cx="673.93" cy="159.92" r="1.17" xlink:href="#Degradado_sin_nombre_17"/><radialGradient id="Degradado_sin_nombre_17-5" cx="630.79" cy="100.47" r="1.47" xlink:href="#Degradado_sin_nombre_17"/><radialGradient id="Degradado_sin_nombre_17-6" cx="657.54" cy="57.1" r="4.06" xlink:href="#Degradado_sin_nombre_17"/><radialGradient id="Degradado_sin_nombre_17-7" cx="702.96" cy="65.53" r="4.37" xlink:href="#Degradado_sin_nombre_17"/><radialGradient id="Degradado_sin_nombre_17-8" cx="488.77" cy="408.19" r="1.79" xlink:href="#Degradado_sin_nombre_17"/><radialGradient id="Degradado_sin_nombre_17-9" cx="608.93" cy="471.94" r="1.4" xlink:href="#Degradado_sin_nombre_17"/><radialGradient id="Degradado_sin_nombre_17-10" cx="467.06" cy="447.26" r="4.09" xlink:href="#Degradado_sin_nombre_17"/><radialGradient id="Degradado_sin_nombre_17-11" cx="499.11" cy="476.23" r="1.4" xlink:href="#Degradado_sin_nombre_17"/><radialGradient id="Degradado_sin_nombre_17-12" cx="694.77" cy="531.19" r="3.46" xlink:href="#Degradado_sin_nombre_17"/><radialGradient id="Degradado_sin_nombre_17-13" cx="595.87" cy="418.79" r="3.19" xlink:href="#Degradado_sin_nombre_17"/><radialGradient id="Degradado_sin_nombre_17-14" cx="671.57" cy="461.81" r="2.3" xlink:href="#Degradado_sin_nombre_17"/><radialGradient id="Degradado_sin_nombre_17-15" cx="817.65" cy="409" r="3.83" xlink:href="#Degradado_sin_nombre_17"/><radialGradient id="Degradado_sin_nombre_17-16" cx="662.55" cy="355.09" r="1.95" xlink:href="#Degradado_sin_nombre_17"/><radialGradient id="Degradado_sin_nombre_17-17" cx="211.32" cy="433.72" r="4.68" xlink:href="#Degradado_sin_nombre_17"/><radialGradient id="Degradado_sin_nombre_17-18" cx="329.16" cy="492" r="3.34" xlink:href="#Degradado_sin_nombre_17"/><radialGradient id="Degradado_sin_nombre_17-19" cx="249.41" cy="437.18" r="3.45" xlink:href="#Degradado_sin_nombre_17"/><radialGradient id="Degradado_sin_nombre_17-20" cx="391.27" cy="478.86" r="2.81" xlink:href="#Degradado_sin_nombre_17"/><radialGradient id="Degradado_sin_nombre_17-21" cx="296.18" cy="350.92" r="2.22" xlink:href="#Degradado_sin_nombre_17"/><radialGradient id="Degradado_sin_nombre_17-22" cx="184.68" cy="537.32" r="2.66" xlink:href="#Degradado_sin_nombre_17"/><radialGradient id="Degradado_sin_nombre_17-23" cx="184.68" cy="514.05" r="2.66" xlink:href="#Degradado_sin_nombre_17"/><radialGradient id="Degradado_sin_nombre_17-24" cx="187.24" cy="458.29" r="2.56" xlink:href="#Degradado_sin_nombre_17"/><radialGradient id="Degradado_sin_nombre_17-25" cx="79.8" cy="318.81" r="2.28" xlink:href="#Degradado_sin_nombre_17"/><radialGradient id="Degradado_sin_nombre_17-26" cx="42.98" cy="314.74" r="4.85" xlink:href="#Degradado_sin_nombre_17"/><radialGradient id="Degradado_sin_nombre_17-27" cx="84.45" cy="273" r="4.47" xlink:href="#Degradado_sin_nombre_17"/><radialGradient id="Degradado_sin_nombre_17-28" cx="100.68" cy="314.23" r="2.3" xlink:href="#Degradado_sin_nombre_17"/><radialGradient id="Degradado_sin_nombre_17-29" cx="215.36" cy="263.21" r="2.55" xlink:href="#Degradado_sin_nombre_17"/><radialGradient id="Degradado_sin_nombre_17-30" cx="217.5" cy="207.14" r="2.14" xlink:href="#Degradado_sin_nombre_17"/><radialGradient id="Degradado_sin_nombre_17-31" cx="47.97" cy="92.87" r="2.74" xlink:href="#Degradado_sin_nombre_17"/><radialGradient id="Degradado_sin_nombre_17-32" cx="153.93" cy="142.75" r="1.12" xlink:href="#Degradado_sin_nombre_17"/><radialGradient id="Degradado_sin_nombre_17-33" cx="84.61" cy="82.19" r="2.53" xlink:href="#Degradado_sin_nombre_17"/><radialGradient id="Degradado_sin_nombre_17-34" cx="54.98" cy="123.51" r="2.04" xlink:href="#Degradado_sin_nombre_17"/><radialGradient id="Degradado_sin_nombre_17-35" cx="272.07" cy="187.54" r="5.14" xlink:href="#Degradado_sin_nombre_17"/><radialGradient id="Degradado_sin_nombre_17-36" cx="328.38" cy="236.66" r="2.55" xlink:href="#Degradado_sin_nombre_17"/><radialGradient id="Degradado_sin_nombre_17-37" cx="166.57" cy="228.43" r="4.32" xlink:href="#Degradado_sin_nombre_17"/><radialGradient id="Degradado_sin_nombre_17-38" cx="252.29" cy="101.88" r="2.88" xlink:href="#Degradado_sin_nombre_17"/><radialGradient id="Degradado_sin_nombre_17-39" cx="241.62" cy="49.73" r="3.32" xlink:href="#Degradado_sin_nombre_17"/><radialGradient id="Degradado_sin_nombre_17-40" cx="455.74" cy="187.1" r="1.87" xlink:href="#Degradado_sin_nombre_17"/><radialGradient id="Degradado_sin_nombre_17-41" cx="384.51" cy="267.94" r="2.17" xlink:href="#Degradado_sin_nombre_17"/><radialGradient id="Degradado_sin_nombre_17-42" cx="318.21" cy="310.15" r="2.81" xlink:href="#Degradado_sin_nombre_17"/><radialGradient id="Degradado_sin_nombre_17-43" cx="362.13" cy="254.22" r="4.22" xlink:href="#Degradado_sin_nombre_17"/><radialGradient id="Degradado_sin_nombre_17-44" cx="424.17" cy="173.55" r="2.04" xlink:href="#Degradado_sin_nombre_17"/><radialGradient id="Degradado_sin_nombre_17-45" cx="446.02" cy="86.16" r="3.97" xlink:href="#Degradado_sin_nombre_17"/><radialGradient id="Degradado_sin_nombre_17-46" cx="641.23" cy="236.66" r="2.55" xlink:href="#Degradado_sin_nombre_17"/><radialGradient id="Degradado_sin_nombre_17-47" cx="402.17" cy="254.14" r="2.46" xlink:href="#Degradado_sin_nombre_17"/><radialGradient id="Degradado_sin_nombre_17-48" cx="422.13" cy="205.25" r="2.04" xlink:href="#Degradado_sin_nombre_17"/><radialGradient id="Degradado_sin_nombre_17-49" cx="392.53" cy="164.2" r="4.07" xlink:href="#Degradado_sin_nombre_17"/><radialGradient id="Degradado_sin_nombre_17-50" cx="299.46" cy="60.38" r="3.28" xlink:href="#Degradado_sin_nombre_17"/><radialGradient id="Degradado_sin_nombre_17-51" cx="158.65" cy="47.44" r="3.59" xlink:href="#Degradado_sin_nombre_17"/><radialGradient id="Degradado_sin_nombre_17-52" cx="100.99" cy="35.73" r="6.69" xlink:href="#Degradado_sin_nombre_17"/><radialGradient id="Degradado_sin_nombre_17-53" cx="642.76" cy="312.24" r="4.09" xlink:href="#Degradado_sin_nombre_17"/><radialGradient id="Degradado_sin_nombre_17-54" cx="670.85" cy="281.6" r="5.11" xlink:href="#Degradado_sin_nombre_17"/><radialGradient id="Degradado_sin_nombre_17-55" cx="653.86" cy="121.29" r="5.39" xlink:href="#Degradado_sin_nombre_17"/><radialGradient id="Degradado_sin_nombre_16" cx="600.51" cy="328.45" r="3.74" gradientUnits="userSpaceOnUse"><stop offset="0" stop-color="#036ab8"/><stop offset="0.12" stop-color="#0663b4" stop-opacity="0.93"/><stop offset="0.33" stop-color="#0c50a8" stop-opacity="0.75"/><stop offset="0.61" stop-color="#173195" stop-opacity="0.46"/><stop offset="0.95" stop-color="#26087c" stop-opacity="0.06"/><stop offset="1" stop-color="#280178" stop-opacity="0"/></radialGradient><radialGradient id="Degradado_sin_nombre_16-2" cx="113.19" cy="378.06" r="7.66" gradientTransform="translate(153.29 -14.54) rotate(22.5)" xlink:href="#Degradado_sin_nombre_16"/><radialGradient id="Degradado_sin_nombre_16-3" cx="137" cy="322.71" r="3.9" xlink:href="#Degradado_sin_nombre_16"/><radialGradient id="Degradado_sin_nombre_16-4" cx="223.47" cy="308.41" r="3.83" xlink:href="#Degradado_sin_nombre_16"/><radialGradient id="Degradado_sin_nombre_16-5" cx="43.05" cy="139.55" r="4.92" xlink:href="#Degradado_sin_nombre_16"/><radialGradient id="Degradado_sin_nombre_16-6" cx="117.02" cy="91.63" r="3.83" xlink:href="#Degradado_sin_nombre_16"/><radialGradient id="Degradado_sin_nombre_16-7" cx="325.15" cy="280.5" r="4.01" xlink:href="#Degradado_sin_nombre_16"/><radialGradient id="Degradado_sin_nombre_16-8" cx="267.91" cy="152.79" r="4.6" xlink:href="#Degradado_sin_nombre_16"/><radialGradient id="Degradado_sin_nombre_16-9" cx="393.25" cy="210.85" r="3.55" xlink:href="#Degradado_sin_nombre_16"/><radialGradient id="Degradado_sin_nombre_16-10" cx="360.02" cy="341.4" r="2.11" xlink:href="#Degradado_sin_nombre_16"/><radialGradient id="Degradado_sin_nombre_16-11" cx="392.29" cy="396.23" r="5.61" xlink:href="#Degradado_sin_nombre_16"/><radialGradient id="Degradado_sin_nombre_16-12" cx="696.88" cy="332.58" r="2.11" xlink:href="#Degradado_sin_nombre_16"/><radialGradient id="Degradado_sin_nombre_16-13" cx="668.96" cy="156.9" r="3.22" xlink:href="#Degradado_sin_nombre_16"/><radialGradient id="Degradado_sin_nombre_16-14" cx="560.74" cy="19.67" r="1.61" xlink:href="#Degradado_sin_nombre_16"/><radialGradient id="Degradado_sin_nombre_16-15" cx="425.96" cy="41.6" r="5.87" xlink:href="#Degradado_sin_nombre_16"/><radialGradient id="Degradado_sin_nombre_16-16" cx="731.41" cy="239.95" r="2.09" xlink:href="#Degradado_sin_nombre_16"/><radialGradient id="Degradado_sin_nombre_16-17" cx="699.95" cy="257.63" r="3.41" xlink:href="#Degradado_sin_nombre_16"/><radialGradient id="Degradado_sin_nombre_16-18" cx="653.01" cy="421.98" r="3.2" xlink:href="#Degradado_sin_nombre_16"/><radialGradient id="Degradado_sin_nombre_16-19" cx="528.4" cy="467.12" r="3.01" xlink:href="#Degradado_sin_nombre_16"/><radialGradient id="Degradado_sin_nombre_16-20" cx="113.65" cy="458.01" r="3.83" xlink:href="#Degradado_sin_nombre_16"/><radialGradient id="Degradado_sin_nombre_16-21" cx="148.03" cy="527.38" r="8.51" xlink:href="#Degradado_sin_nombre_16"/><radialGradient id="Degradado_sin_nombre_16-22" cx="139.22" cy="476.1" r="2.76" xlink:href="#Degradado_sin_nombre_16"/><radialGradient id="Degradado_sin_nombre_16-23" cx="31.11" cy="376.66" r="1.4" xlink:href="#Degradado_sin_nombre_16"/><radialGradient id="Degradado_sin_nombre_16-24" cx="169.02" cy="513.72" r="4.21" xlink:href="#Degradado_sin_nombre_16"/><radialGradient id="Degradado_sin_nombre_16-25" cx="368.65" cy="461.81" r="2.3" xlink:href="#Degradado_sin_nombre_16"/><radialGradient id="Degradado_sin_nombre_16-26" cx="317.71" cy="454.65" r="3.31" xlink:href="#Degradado_sin_nombre_16"/><radialGradient id="Degradado_sin_nombre_16-27" cx="473.88" cy="409.14" r="2.74" xlink:href="#Degradado_sin_nombre_16"/><radialGradient id="Degradado_sin_nombre_16-28" cx="529.67" cy="330.89" r="4.29" xlink:href="#Degradado_sin_nombre_16"/><radialGradient id="Degradado_sin_nombre_16-29" cx="517.62" cy="281.3" r="3.83" xlink:href="#Degradado_sin_nombre_16"/><radialGradient id="Degradado_sin_nombre_16-30" cx="323.82" cy="107.56" r="2.8" xlink:href="#Degradado_sin_nombre_16"/><radialGradient id="Degradado_sin_nombre_16-31" cx="355.89" cy="28.68" r="3.72" xlink:href="#Degradado_sin_nombre_16"/><radialGradient id="Degradado_sin_nombre_14" cx="689.48" cy="113.71" r="3.35" gradientUnits="userSpaceOnUse"><stop offset="0" stop-color="#87cbff"/><stop offset="0.09" stop-color="#82c1f8" stop-opacity="0.95"/><stop offset="0.25" stop-color="#76a7e7" stop-opacity="0.82"/><stop offset="0.47" stop-color="#627cca" stop-opacity="0.61"/><stop offset="0.73" stop-color="#4641a3" stop-opacity="0.32"/><stop offset="1" stop-color="#280178" stop-opacity="0"/></radialGradient><radialGradient id="Degradado_sin_nombre_14-2" cx="191.32" cy="261.04" r="6.89" xlink:href="#Degradado_sin_nombre_14"/><radialGradient id="Degradado_sin_nombre_14-3" cx="177.92" cy="165.03" r="3.45" xlink:href="#Degradado_sin_nombre_14"/><radialGradient id="Degradado_sin_nombre_14-4" cx="42.42" cy="29.25" r="4.29" xlink:href="#Degradado_sin_nombre_14"/><radialGradient id="Degradado_sin_nombre_14-5" cx="236.39" cy="284.57" r="5.24" xlink:href="#Degradado_sin_nombre_14"/><radialGradient id="Degradado_sin_nombre_14-6" cx="238.33" cy="238.32" r="1.95" xlink:href="#Degradado_sin_nombre_14"/><radialGradient id="Degradado_sin_nombre_14-7" cx="241.22" cy="121.64" r="2.89" xlink:href="#Degradado_sin_nombre_14"/><radialGradient id="Degradado_sin_nombre_14-8" cx="202.06" cy="69.37" r="3.84" xlink:href="#Degradado_sin_nombre_14"/><radialGradient id="Degradado_sin_nombre_14-9" cx="60.34" cy="249.93" r="3.32" xlink:href="#Degradado_sin_nombre_14"/><radialGradient id="Degradado_sin_nombre_14-10" cx="125.77" cy="293.64" r="2.32" xlink:href="#Degradado_sin_nombre_14"/><radialGradient id="Degradado_sin_nombre_14-11" cx="139.35" cy="431.38" r="2.34" xlink:href="#Degradado_sin_nombre_14"/><radialGradient id="Degradado_sin_nombre_14-12" cx="148.82" cy="394.93" r="3.46" xlink:href="#Degradado_sin_nombre_14"/><radialGradient id="Degradado_sin_nombre_14-13" cx="549.4" cy="404.9" r="6.51" xlink:href="#Degradado_sin_nombre_14"/><radialGradient id="Degradado_sin_nombre_14-14" cx="451.97" cy="450.05" r="3.77" xlink:href="#Degradado_sin_nombre_14"/><radialGradient id="Degradado_sin_nombre_14-15" cx="375.1" cy="293.97" r="4.16" xlink:href="#Degradado_sin_nombre_14"/><radialGradient id="Degradado_sin_nombre_14-16" cx="492.6" cy="173.55" r="2.04" xlink:href="#Degradado_sin_nombre_14"/><radialGradient id="Degradado_sin_nombre_14-17" cx="619.76" cy="180.66" r="4.57" xlink:href="#Degradado_sin_nombre_14"/><radialGradient id="Degradado_sin_nombre_14-18" cx="718.36" cy="272.21" r="4.28" xlink:href="#Degradado_sin_nombre_14"/><radialGradient id="Degradado_sin_nombre_14-19" cx="759.01" cy="425.52" r="3.65" xlink:href="#Degradado_sin_nombre_14"/><radialGradient id="Degradado_sin_nombre_14-20" cx="582.59" cy="361.51" r="4.46" xlink:href="#Degradado_sin_nombre_14"/><radialGradient id="Degradado_sin_nombre_14-21" cx="668.96" cy="469.41" r="3.22" xlink:href="#Degradado_sin_nombre_14"/><radialGradient id="Degradado_sin_nombre_14-22" cx="668.67" cy="319.43" r="2.9" xlink:href="#Degradado_sin_nombre_14"/><radialGradient id="Degradado_sin_nombre_14-23" cx="686.84" cy="206.68" r="2.64" xlink:href="#Degradado_sin_nombre_14"/><radialGradient id="Degradado_sin_nombre_14-24" cx="701.73" cy="161.89" r="3.14" xlink:href="#Degradado_sin_nombre_14"/><radialGradient id="Degradado_sin_nombre_14-25" cx="533.15" cy="29.25" r="4.29" xlink:href="#Degradado_sin_nombre_14"/><radialGradient id="Degradado_sin_nombre_14-26" cx="488.89" cy="34.42" r="5.74" xlink:href="#Degradado_sin_nombre_14"/><radialGradient id="Degradado_sin_nombre_14-27" cx="284.31" cy="114.06" r="1.84" xlink:href="#Degradado_sin_nombre_14"/><radialGradient id="Degradado_sin_nombre_14-28" cx="332.77" cy="122.48" r="1.84" xlink:href="#Degradado_sin_nombre_14"/><radialGradient id="Degradado_sin_nombre_14-29" cx="141.8" cy="198.95" r="2.58" xlink:href="#Degradado_sin_nombre_14"/><radialGradient id="Degradado_sin_nombre_13" cx="54.8" cy="47.94" r="11.7" gradientUnits="userSpaceOnUse"><stop offset="0.45" stop-color="#c231fa"/><stop offset="0.97" stop-color="#c231fa" stop-opacity="0"/></radialGradient><radialGradient id="Degradado_sin_nombre_13-2" cx="54.77" cy="47.93" r="10.3" xlink:href="#Degradado_sin_nombre_13"/><linearGradient id="Degradado_sin_nombre_11" x1="36.86" y1="96.58" x2="29.93" y2="105.59" gradientTransform="translate(28.83 -56.67) rotate(5.43)" gradientUnits="userSpaceOnUse"><stop offset="0.04" stop-color="#c231fa" stop-opacity="0"/><stop offset="0.45" stop-color="#c231fa"/><stop offset="0.97" stop-color="#c231fa" stop-opacity="0"/></linearGradient><radialGradient id="Degradado_sin_nombre_9" cx="480.1" cy="75.65" r="6.71" gradientUnits="userSpaceOnUse"><stop offset="0.23" stop-color="#88e4ef"/><stop offset="0.32" stop-color="#88e4ef" stop-opacity="0.98"/><stop offset="0.42" stop-color="#88e4ef" stop-opacity="0.92"/><stop offset="0.52" stop-color="#88e4ef" stop-opacity="0.83"/><stop offset="0.63" stop-color="#88e4ef" stop-opacity="0.7"/><stop offset="0.74" stop-color="#88e4ef" stop-opacity="0.53"/><stop offset="0.85" stop-color="#88e4ef" stop-opacity="0.32"/><stop offset="0.96" stop-color="#88e4ef" stop-opacity="0.08"/><stop offset="1" stop-color="#88e4ef" stop-opacity="0"/></radialGradient><radialGradient id="Degradado_sin_nombre_9-2" cx="589.93" cy="156.12" r="5.97" xlink:href="#Degradado_sin_nombre_9"/><linearGradient id="Degradado_sin_nombre_3" x1="481.52" y1="73.25" x2="476.72" y2="76.93" gradientUnits="userSpaceOnUse"><stop offset="0.11" stop-color="#88e4ef" stop-opacity="0"/><stop offset="0.47" stop-color="#88e4ef"/><stop offset="0.93" stop-color="#88e4ef" stop-opacity="0"/></linearGradient><radialGradient id="Degradado_sin_nombre_9-3" cx="464.19" cy="94.09" r="10.67" gradientTransform="translate(482.71 -379.17) rotate(80.78)" xlink:href="#Degradado_sin_nombre_9"/><radialGradient id="Degradado_sin_nombre_9-4" cx="464.19" cy="94.09" r="9.49" gradientTransform="translate(71.34 -170.47) rotate(22.5)" xlink:href="#Degradado_sin_nombre_9"/><linearGradient id="Degradado_sin_nombre_3-2" x1="466.43" y1="90.28" x2="458.81" y2="96.13" xlink:href="#Degradado_sin_nombre_3"/><radialGradient id="Degradado_sin_nombre_9-5" cx="696.54" cy="105.41" r="10.67" gradientTransform="translate(278.54 -461.65) rotate(45)" xlink:href="#Degradado_sin_nombre_9"/><radialGradient id="Degradado_sin_nombre_9-6" cx="696.54" cy="105.41" r="9.49" gradientTransform="translate(278.54 -461.65) rotate(45)" xlink:href="#Degradado_sin_nombre_9"/><linearGradient id="Degradado_sin_nombre_3-3" x1="698.79" y1="101.6" x2="691.16" y2="107.45" xlink:href="#Degradado_sin_nombre_3"/><radialGradient id="Degradado_sin_nombre_9-7" cx="774.16" cy="119.25" r="6.6" xlink:href="#Degradado_sin_nombre_9"/><radialGradient id="Degradado_sin_nombre_9-8" cx="774.16" cy="119.25" r="5.87" xlink:href="#Degradado_sin_nombre_9"/><linearGradient id="Degradado_sin_nombre_3-4" x1="665.72" y1="36.43" x2="661.01" y2="40.05" xlink:href="#Degradado_sin_nombre_3"/><radialGradient id="Degradado_sin_nombre_6" cx="747.59" cy="488.45" r="147.97" gradientUnits="userSpaceOnUse"><stop offset="0.45" stop-color="#fcc006"/><stop offset="0.5" stop-color="#fcc006" stop-opacity="0.97"/><stop offset="0.57" stop-color="#fcc006" stop-opacity="0.89"/><stop offset="0.65" stop-color="#fcc006" stop-opacity="0.77"/><stop offset="0.74" stop-color="#fcc006" stop-opacity="0.59"/><stop offset="0.84" stop-color="#fcc006" stop-opacity="0.36"/><stop offset="0.95" stop-color="#fcc006" stop-opacity="0.09"/><stop offset="0.98" stop-color="#fcc006" stop-opacity="0"/></radialGradient><radialGradient id="Degradado_sin_nombre_6-2" cx="748.19" cy="488.82" r="126.46" xlink:href="#Degradado_sin_nombre_6"/><linearGradient id="Degradado_sin_nombre_5" x1="800.5" y1="432.44" x2="687.17" y2="534.53" gradientUnits="userSpaceOnUse"><stop offset="0" stop-color="#fcc006" stop-opacity="0"/><stop offset="0.45" stop-color="#fcc006"/><stop offset="0.98" stop-color="#fcc006" stop-opacity="0"/></linearGradient></defs><g class="cls-2"><g id="BACKGROUND"><rect class="cls-3" x="109.82" y="80.47" width="750" height="500"/><g class="cls-4"><g class="cls-5"><path class="cls-6" d="M835,63.11C820.75,5.9,782-47.78,726.36-67.28c-30.73-10.76-64.05-10.6-96.6-10.33l-487,4.14c-31.66.27-96.92-6.54-116.71,24C.61-10.19-20.31,33.33-37.39,76.85c-6.5,16.55-10.84,38.91,3.71,49.14,14.74,10.35,34.37-1.68,48.49-12.86A865.59,865.59,0,0,1,178.69,10.93c16.38-7.83,37.64-14.55,51.16-2.44,8.94,8,10.54,21.84,7.2,33.37S226.33,63.24,219.33,73A718,718,0,0,0,94.6,374.44c-3.21,19.63-4.72,42.34,9,56.79,19.53,20.61,54.29,9.59,77.83-6.28,119.81-80.8,165.19-244.26,288.74-319.23,6.78-4.11,14.85-8,22.33-5.41,8.13,2.86,12,12.74,10.84,21.29s-6.05,16.05-10.8,23.24A3140,3140,0,0,0,289.66,501.16C284,512.72,278.39,524.75,278,537.59s6,26.8,18,31.27c15.46,5.73,31.62-5.76,43.56-17.12,131.54-125.28,184.32-324,330.55-429.47a5.55,5.55,0,0,1,8.61,6L654.69,216c-3,10.83-5.21,24.34,3.31,31.66,7.94,6.83,20.33,3.6,29.27-1.85s17.28-13,27.68-14.22c33.16-3.95,47.66,54.86,80.86,51.18,19.73-2.18,28.92-25.18,33.31-44.54C842.19,180.75,849.23,120.32,835,63.11ZM241.47,291.41c-1.46,3-3,6.09-5.54,8.26s-6.35,3.22-9.28,1.61a8.2,8.2,0,0,1-3.83-6,19.64,19.64,0,0,1,.63-7.34A68.51,68.51,0,0,1,235,262.83c5.11-6.92,14.79-10.32,14.66,2C249.59,274.16,245.56,283,241.47,291.41ZM414.14,136.62c-7.26,7.35-15.91,13.15-23.9,19.7-41.32,33.91-62.62,85.7-92.87,129.77-2.83,4.13-5.81,8.26-9.78,11.32s-9.1,5-14,4c-7.54-1.48-12.49-9.37-13-17s2.37-15.12,5.48-22.15c24.15-54.7,63.77-101.83,110.64-139,7.3-5.79,14.9-11.42,23.55-14.88,6.61-2.65,23.35-7.5,26.81,2C430.18,119,419.55,131.16,414.14,136.62Zm30.42,154.63A332.9,332.9,0,0,1,385.88,418.1c-4.37,5.8-10.47,12.08-17.61,10.76-5.19-1-8.9-5.93-9.94-11.1s.05-10.51,1.34-15.63c8.43-33.66,24.81-64.63,43.47-93.66,9.11-14.17,18.26-30.63,29.62-43.09C447.42,249.29,446.54,282.45,444.56,291.25Zm30.8-13.35c-2.47,7.26-6.44,13.93-10.69,20.32a13.85,13.85,0,0,1-3.68,4.15,4.92,4.92,0,0,1-5.27.33c-2-1.35-2.18-4.24-2-6.67.88-9.77,4.56-18.38,9.41-26.79,1.48-2.57,2.6-5,5.82-5.42,4.19-.53,7.25,2.95,7.59,6.86A17.78,17.78,0,0,1,475.36,277.9ZM715.7,164.69a219.59,219.59,0,0,1-16.78,38.87c-2.19,4-4.61,8-8.28,10.7s-8.91,3.72-12.79,1.34c-3.18-1.95-4.82-5.8-5.05-9.53s.72-7.42,1.67-11c3.86-14.65,7.8-29.34,13.27-43.49,3.91-10.12,9-26.12,18.08-32.81,6.59-4.88,16.51-3.65,18.17,5.22C726.23,136,719.36,153.34,715.7,164.69Z" transform="translate(109.82 80.47)"/><path class="cls-7" d="M779.87,348.44A124.19,124.19,0,0,0,626,442.33c-4,18.91-4.08,39.8-15.75,55.21-9.19,12.13-24.3,18.64-39.39,20.62s-30.38,0-45.46-2.06c54,27.48,113.25,43.29,173.6,37.91,24.41-2.18,50.76-8.42,65.73-27.83,12.43-16.11,14.25-37.78,15-58.12C781.14,428.6,783,387.8,779.87,348.44Zm-57.46,38c-2.92,8.22-9.7,14.46-16.77,19.57s-14.75,9.55-20.79,15.85c-4.65,4.86-8.26,10.78-13.63,14.85s-13.52,5.73-18.61,1.33-4.66-12.67-2.84-19.3a80.42,80.42,0,0,1,12.15-25.35,85.13,85.13,0,0,1,38.44-30.07C716.12,357.32,728.35,369.67,722.41,386.42Z" transform="translate(109.82 80.47)"/><path class="cls-8" d="M53.53,250.27c20.78-33.22,44.12-65.81,54.64-103.55,2.93-10.53,3-25.11-8.91-27.65a16.32,16.32,0,0,0-12.54,2.65c-36.19,24.84-69.19,55-101.5,84.71C-43,232.32-53.7,279.25-59.24,315.53c-6.31,41.31-4.82,83.49.18,125,3.55,29.5,9.62,60.43,29.29,82.7,8.87,10,22.72,18.24,35.26,13.53,10.91-4.1,16.32-16.11,20.32-27.06a665.89,665.89,0,0,0,20.91-67.93A633.51,633.51,0,0,0,61.38,360.9,12.17,12.17,0,0,0,45.3,348l-14.19,5a12.15,12.15,0,0,1-16-13.33C20.14,307.79,36.25,277.91,53.53,250.27ZM18.6,254.15C21.64,239.76,29,226.57,38,215A191.89,191.89,0,0,1,52,199.16c3.22-3.31,9-11.74,14.12-11.54,14.21.57-.38,26-3.52,30.7a287.25,287.25,0,0,1-34.33,42.33c-1.7,1.74-3.84,3.59-6.23,3.15C18.24,263.11,17.81,257.89,18.6,254.15Z" transform="translate(109.82 80.47)"/></g><path class="cls-9" d="M797.54,469.33c-30.42-36.46-79.24-53.65-126.69-55.45s-94.28,10-140,22.94S439.34,463.92,392,467c-85.34,5.53-168.2-25.13-250.6-48S-32,381.38-109.82,416.76C-104.13,494-56.18,569.7,8.94,611.66,66,648.43,135.11,660.53,202.33,670c111.88,15.79,227,26.4,336.91.29S753.86,573.53,797.54,469.33Z" transform="translate(109.82 80.47)"/><path class="cls-10" d="M-20.28-31.07C2.71,12.1,48.83,39.28,96.51,50.17s97.37,7.56,146.06,2.88,97.79-10.61,146.35-4.74C452.56,56,514.14,83.87,578.06,79.12c35.73-2.66,69.82-15.42,104.79-23.21s73.37-10.17,105,6.71c-2.54-42.54-32.78-77.61-69.61-99S637.73-64.7,595.12-65.07s-85,5.33-127.6,7.16C347.58-52.73,228.37-78.22,108.34-80.44,61.5-81.31,12.92-64.12-20.28-31.07Z" transform="translate(109.82 80.47)"/></g><circle class="cls-11" cx="698.23" cy="426.68" r="6.93"/><path class="cls-12" d="M632.26,274.53a2.94,2.94,0,1,1-2.94-2.93A2.94,2.94,0,0,1,632.26,274.53Z" transform="translate(109.82 80.47)"/><path class="cls-13" d="M632.26,230.62a2.94,2.94,0,1,1-2.94-2.94A2.94,2.94,0,0,1,632.26,230.62Z" transform="translate(109.82 80.47)"/><path class="cls-14" d="M675.1,159.92a1.17,1.17,0,1,1-1.17-1.18A1.17,1.17,0,0,1,675.1,159.92Z" transform="translate(109.82 80.47)"/><path class="cls-15" d="M632.26,100.47A1.47,1.47,0,1,1,630.79,99,1.47,1.47,0,0,1,632.26,100.47Z" transform="translate(109.82 80.47)"/><path class="cls-16" d="M661.6,57.1A4.06,4.06,0,1,1,657.54,53,4.06,4.06,0,0,1,661.6,57.1Z" transform="translate(109.82 80.47)"/><path class="cls-17" d="M707.33,65.53A4.37,4.37,0,1,1,703,61.16,4.37,4.37,0,0,1,707.33,65.53Z" transform="translate(109.82 80.47)"/><path class="cls-18" d="M490.55,408.19a1.79,1.79,0,1,1-1.78-1.79A1.79,1.79,0,0,1,490.55,408.19Z" transform="translate(109.82 80.47)"/><circle class="cls-19" cx="608.93" cy="471.94" r="1.4"/><path class="cls-20" d="M471.15,447.26a4.09,4.09,0,1,1-4.09-4.09A4.09,4.09,0,0,1,471.15,447.26Z" transform="translate(109.82 80.47)"/><path class="cls-21" d="M500.51,476.23a1.41,1.41,0,1,1-1.4-1.4A1.41,1.41,0,0,1,500.51,476.23Z" transform="translate(109.82 80.47)"/><circle class="cls-22" cx="694.77" cy="531.19" r="3.46"/><path class="cls-23" d="M599.06,418.79a3.19,3.19,0,1,1-3.19-3.19A3.19,3.19,0,0,1,599.06,418.79Z" transform="translate(109.82 80.47)"/><path class="cls-24" d="M673.87,461.81a2.3,2.3,0,1,1-2.3-2.3A2.3,2.3,0,0,1,673.87,461.81Z" transform="translate(109.82 80.47)"/><circle class="cls-25" cx="817.65" cy="409" r="3.83"/><path class="cls-26" d="M664.51,355.09a2,2,0,1,1-2-1.95A2,2,0,0,1,664.51,355.09Z" transform="translate(109.82 80.47)"/><path class="cls-27" d="M216,433.72a4.68,4.68,0,1,1-4.68-4.68A4.68,4.68,0,0,1,216,433.72Z" transform="translate(109.82 80.47)"/><circle class="cls-28" cx="329.16" cy="492" r="3.34"/><path class="cls-29" d="M252.87,437.18a3.46,3.46,0,1,1-3.46-3.46A3.45,3.45,0,0,1,252.87,437.18Z" transform="translate(109.82 80.47)"/><circle class="cls-30" cx="391.27" cy="478.86" r="2.81"/><path class="cls-31" d="M298.39,350.92a2.22,2.22,0,1,1-2.21-2.22A2.21,2.21,0,0,1,298.39,350.92Z" transform="translate(109.82 80.47)"/><circle class="cls-32" cx="184.68" cy="537.32" r="2.66"/><circle class="cls-33" cx="184.68" cy="514.05" r="2.66"/><circle class="cls-34" cx="187.24" cy="458.29" r="2.56"/><path class="cls-35" d="M82.08,318.81a2.28,2.28,0,1,1-2.28-2.28A2.28,2.28,0,0,1,82.08,318.81Z" transform="translate(109.82 80.47)"/><path class="cls-36" d="M47.83,314.74A4.85,4.85,0,1,1,43,309.89,4.86,4.86,0,0,1,47.83,314.74Z" transform="translate(109.82 80.47)"/><path class="cls-37" d="M88.92,273a4.47,4.47,0,1,1-4.47-4.47A4.47,4.47,0,0,1,88.92,273Z" transform="translate(109.82 80.47)"/><path class="cls-38" d="M103,314.23a2.3,2.3,0,1,1-2.3-2.29A2.3,2.3,0,0,1,103,314.23Z" transform="translate(109.82 80.47)"/><circle class="cls-39" cx="215.36" cy="263.21" r="2.55"/><circle class="cls-40" cx="217.5" cy="207.14" r="2.14"/><path class="cls-41" d="M50.71,92.87A2.74,2.74,0,1,1,48,90.13,2.74,2.74,0,0,1,50.71,92.87Z" transform="translate(109.82 80.47)"/><circle class="cls-42" cx="153.93" cy="142.75" r="1.12"/><path class="cls-43" d="M87.14,82.19a2.53,2.53,0,1,1-2.53-2.53A2.54,2.54,0,0,1,87.14,82.19Z" transform="translate(109.82 80.47)"/><path class="cls-44" d="M57,123.51a2,2,0,1,1-2-2A2,2,0,0,1,57,123.51Z" transform="translate(109.82 80.47)"/><circle class="cls-45" cx="272.07" cy="187.54" r="5.14"/><circle class="cls-46" cx="328.38" cy="236.66" r="2.55"/><path class="cls-47" d="M170.89,228.43a4.33,4.33,0,1,1-4.32-4.32A4.32,4.32,0,0,1,170.89,228.43Z" transform="translate(109.82 80.47)"/><path class="cls-48" d="M255.17,101.88A2.88,2.88,0,1,1,252.29,99,2.88,2.88,0,0,1,255.17,101.88Z" transform="translate(109.82 80.47)"/><path class="cls-49" d="M245,49.73a3.33,3.33,0,1,1-3.33-3.33A3.33,3.33,0,0,1,245,49.73Z" transform="translate(109.82 80.47)"/><circle class="cls-50" cx="455.74" cy="187.1" r="1.87"/><circle class="cls-51" cx="384.51" cy="267.94" r="2.17"/><path class="cls-52" d="M321,310.15a2.81,2.81,0,1,1-2.81-2.81A2.81,2.81,0,0,1,321,310.15Z" transform="translate(109.82 80.47)"/><path class="cls-53" d="M366.35,254.22a4.22,4.22,0,1,1-4.22-4.22A4.22,4.22,0,0,1,366.35,254.22Z" transform="translate(109.82 80.47)"/><path class="cls-54" d="M426.21,173.55a2,2,0,1,1-2-2A2,2,0,0,1,426.21,173.55Z" transform="translate(109.82 80.47)"/><path class="cls-55" d="M450,86.16a4,4,0,1,1-4-4A4,4,0,0,1,450,86.16Z" transform="translate(109.82 80.47)"/><circle class="cls-56" cx="641.23" cy="236.66" r="2.55"/><path class="cls-57" d="M404.63,254.14a2.47,2.47,0,1,1-2.46-2.46A2.47,2.47,0,0,1,404.63,254.14Z" transform="translate(109.82 80.47)"/><path class="cls-58" d="M424.17,205.25a2,2,0,1,1-2-2A2,2,0,0,1,424.17,205.25Z" transform="translate(109.82 80.47)"/><circle class="cls-59" cx="392.53" cy="164.2" r="4.07"/><path class="cls-60" d="M302.74,60.38a3.28,3.28,0,1,1-3.28-3.28A3.28,3.28,0,0,1,302.74,60.38Z" transform="translate(109.82 80.47)"/><path class="cls-61" d="M162.24,47.44a3.59,3.59,0,1,1-3.59-3.59A3.59,3.59,0,0,1,162.24,47.44Z" transform="translate(109.82 80.47)"/><path class="cls-62" d="M107.67,35.73A6.69,6.69,0,1,1,101,29,6.69,6.69,0,0,1,107.67,35.73Z" transform="translate(109.82 80.47)"/><circle class="cls-63" cx="642.76" cy="312.24" r="4.09"/><circle class="cls-64" cx="670.85" cy="281.6" r="5.11"/><path class="cls-65" d="M659.25,121.29a5.39,5.39,0,1,1-5.39-5.39A5.38,5.38,0,0,1,659.25,121.29Z" transform="translate(109.82 80.47)"/><path class="cls-66" d="M604.26,328.45a3.75,3.75,0,1,1-3.75-3.75A3.75,3.75,0,0,1,604.26,328.45Z" transform="translate(109.82 80.47)"/><circle class="cls-67" cx="113.19" cy="378.06" r="7.66" transform="matrix(0.92, -0.38, 0.38, 0.92, -26.24, 152.56)"/><path class="cls-68" d="M140.9,322.71a3.9,3.9,0,1,1-3.9-3.9A3.9,3.9,0,0,1,140.9,322.71Z" transform="translate(109.82 80.47)"/><circle class="cls-69" cx="223.47" cy="308.41" r="3.83"/><path class="cls-70" d="M48,139.55a4.92,4.92,0,1,1-4.92-4.92A4.93,4.93,0,0,1,48,139.55Z" transform="translate(109.82 80.47)"/><path class="cls-71" d="M120.85,91.63A3.83,3.83,0,1,1,117,87.8,3.83,3.83,0,0,1,120.85,91.63Z" transform="translate(109.82 80.47)"/><circle class="cls-72" cx="325.15" cy="280.5" r="4.01"/><path class="cls-73" d="M272.51,152.79a4.6,4.6,0,1,1-4.6-4.6A4.6,4.6,0,0,1,272.51,152.79Z" transform="translate(109.82 80.47)"/><path class="cls-74" d="M396.81,210.85a3.56,3.56,0,1,1-3.56-3.55A3.55,3.55,0,0,1,396.81,210.85Z" transform="translate(109.82 80.47)"/><path class="cls-75" d="M362.13,341.4a2.11,2.11,0,1,1-2.11-2.11A2.11,2.11,0,0,1,362.13,341.4Z" transform="translate(109.82 80.47)"/><circle class="cls-76" cx="392.29" cy="396.23" r="5.61"/><circle class="cls-77" cx="696.88" cy="332.58" r="2.11"/><circle class="cls-78" cx="668.96" cy="156.9" r="3.22"/><path class="cls-79" d="M562.35,19.67a1.61,1.61,0,1,1-1.61-1.61A1.61,1.61,0,0,1,562.35,19.67Z" transform="translate(109.82 80.47)"/><path class="cls-80" d="M431.83,41.6A5.87,5.87,0,1,1,426,35.73,5.87,5.87,0,0,1,431.83,41.6Z" transform="translate(109.82 80.47)"/><circle class="cls-81" cx="731.41" cy="239.95" r="2.09"/><path class="cls-82" d="M703.36,257.63a3.41,3.41,0,1,1-3.41-3.41A3.41,3.41,0,0,1,703.36,257.63Z" transform="translate(109.82 80.47)"/><path class="cls-83" d="M657.54,422h0Z" transform="translate(109.82 80.47)"/><path class="cls-84" d="M531.4,467.12a3,3,0,1,1-3-3A3,3,0,0,1,531.4,467.12Z" transform="translate(109.82 80.47)"/><path class="cls-85" d="M117.48,458a3.83,3.83,0,1,1-3.83-3.83A3.83,3.83,0,0,1,117.48,458Z" transform="translate(109.82 80.47)"/><circle class="cls-86" cx="148.03" cy="527.38" r="8.51"/><circle class="cls-87" cx="139.22" cy="476.1" r="2.76"/><path class="cls-88" d="M32.51,376.66a1.41,1.41,0,1,1-1.4-1.4A1.4,1.4,0,0,1,32.51,376.66Z" transform="translate(109.82 80.47)"/><circle class="cls-89" cx="169.02" cy="513.72" r="4.21"/><path class="cls-90" d="M371,461.81a2.3,2.3,0,1,1-2.3-2.3A2.3,2.3,0,0,1,371,461.81Z" transform="translate(109.82 80.47)"/><path class="cls-91" d="M321,454.65a3.31,3.31,0,1,1-3.31-3.31A3.31,3.31,0,0,1,321,454.65Z" transform="translate(109.82 80.47)"/><path class="cls-92" d="M476.62,409.14a2.74,2.74,0,1,1-2.74-2.74A2.74,2.74,0,0,1,476.62,409.14Z" transform="translate(109.82 80.47)"/><path class="cls-93" d="M534,330.89a4.29,4.29,0,1,1-4.29-4.28A4.29,4.29,0,0,1,534,330.89Z" transform="translate(109.82 80.47)"/><path class="cls-94" d="M521.45,281.3a3.83,3.83,0,1,1-3.83-3.83A3.84,3.84,0,0,1,521.45,281.3Z" transform="translate(109.82 80.47)"/><path class="cls-95" d="M326.63,107.56a2.81,2.81,0,1,1-2.81-2.8A2.8,2.8,0,0,1,326.63,107.56Z" transform="translate(109.82 80.47)"/><path class="cls-96" d="M359.61,28.68A3.72,3.72,0,1,1,355.89,25,3.72,3.72,0,0,1,359.61,28.68Z" transform="translate(109.82 80.47)"/><path class="cls-97" d="M692.83,113.71a3.35,3.35,0,1,1-3.35-3.35A3.35,3.35,0,0,1,692.83,113.71Z" transform="translate(109.82 80.47)"/><path class="cls-98" d="M198.21,261a6.89,6.89,0,1,1-6.89-6.9A6.89,6.89,0,0,1,198.21,261Z" transform="translate(109.82 80.47)"/><path class="cls-99" d="M181.37,165a3.45,3.45,0,1,1-3.45-3.45A3.44,3.44,0,0,1,181.37,165Z" transform="translate(109.82 80.47)"/><path class="cls-100" d="M46.72,29.25A4.3,4.3,0,1,1,42.42,25,4.31,4.31,0,0,1,46.72,29.25Z" transform="translate(109.82 80.47)"/><path class="cls-101" d="M241.62,284.57a5.24,5.24,0,1,1-5.23-5.23A5.23,5.23,0,0,1,241.62,284.57Z" transform="translate(109.82 80.47)"/><path class="cls-102" d="M240.28,238.32a1.95,1.95,0,1,1-1.95-1.94A1.95,1.95,0,0,1,240.28,238.32Z" transform="translate(109.82 80.47)"/><path class="cls-103" d="M244.12,121.64a2.9,2.9,0,1,1-2.9-2.89A2.89,2.89,0,0,1,244.12,121.64Z" transform="translate(109.82 80.47)"/><path class="cls-104" d="M205.9,69.37a3.85,3.85,0,1,1-3.84-3.84A3.84,3.84,0,0,1,205.9,69.37Z" transform="translate(109.82 80.47)"/><path class="cls-105" d="M63.66,249.93a3.32,3.32,0,1,1-3.32-3.32A3.32,3.32,0,0,1,63.66,249.93Z" transform="translate(109.82 80.47)"/><circle class="cls-106" cx="125.77" cy="293.64" r="2.32"/><path class="cls-107" d="M141.69,431.38a2.35,2.35,0,1,1-2.35-2.34A2.34,2.34,0,0,1,141.69,431.38Z" transform="translate(109.82 80.47)"/><path class="cls-108" d="M152.29,394.93a3.47,3.47,0,1,1-3.47-3.46A3.46,3.46,0,0,1,152.29,394.93Z" transform="translate(109.82 80.47)"/><path class="cls-109" d="M555.91,404.9a6.51,6.51,0,1,1-6.51-6.51A6.5,6.5,0,0,1,555.91,404.9Z" transform="translate(109.82 80.47)"/><circle class="cls-110" cx="451.97" cy="450.05" r="3.77"/><path class="cls-111" d="M379.26,294a4.16,4.16,0,1,1-4.16-4.16A4.15,4.15,0,0,1,379.26,294Z" transform="translate(109.82 80.47)"/><path class="cls-112" d="M494.64,173.55a2,2,0,1,1-2-2A2.05,2.05,0,0,1,494.64,173.55Z" transform="translate(109.82 80.47)"/><circle class="cls-113" cx="619.76" cy="180.66" r="4.57"/><circle class="cls-114" cx="718.36" cy="272.21" r="4.28"/><circle class="cls-115" cx="759.01" cy="425.52" r="3.65"/><path class="cls-116" d="M587.05,361.51a4.46,4.46,0,1,1-4.46-4.46A4.46,4.46,0,0,1,587.05,361.51Z" transform="translate(109.82 80.47)"/><circle class="cls-117" cx="668.96" cy="469.41" r="3.22"/><path class="cls-118" d="M671.57,319.43a2.9,2.9,0,1,1-2.9-2.9A2.9,2.9,0,0,1,671.57,319.43Z" transform="translate(109.82 80.47)"/><path class="cls-119" d="M689.48,206.68a2.65,2.65,0,1,1-2.64-2.64A2.65,2.65,0,0,1,689.48,206.68Z" transform="translate(109.82 80.47)"/><path class="cls-120" d="M704.88,161.89a3.15,3.15,0,1,1-3.15-3.15A3.15,3.15,0,0,1,704.88,161.89Z" transform="translate(109.82 80.47)"/><path class="cls-121" d="M537.44,29.25A4.3,4.3,0,1,1,533.15,25,4.3,4.3,0,0,1,537.44,29.25Z" transform="translate(109.82 80.47)"/><path class="cls-122" d="M494.64,34.42a5.75,5.75,0,1,1-5.75-5.74A5.74,5.74,0,0,1,494.64,34.42Z" transform="translate(109.82 80.47)"/><path class="cls-123" d="M286.16,114.06a1.85,1.85,0,1,1-1.85-1.85A1.84,1.84,0,0,1,286.16,114.06Z" transform="translate(109.82 80.47)"/><circle class="cls-124" cx="332.77" cy="122.48" r="1.84"/><circle class="cls-125" cx="141.8" cy="198.95" r="2.58"/></g><g id="OBJECTS"><path class="cls-126" d="M66.88,47.88a14.16,14.16,0,0,1-.13,1.86l-.07.39a11.64,11.64,0,0,1-.47,1.78l-.15.41a12.36,12.36,0,0,1-4.36,5.61l-.38.26a12.34,12.34,0,0,1-10.39,1.49l-.45-.15a12.35,12.35,0,0,1-6.71-5.65l-.19-.35a12.7,12.7,0,0,1-1-2.6c0-.12-.06-.25-.08-.37a11.84,11.84,0,0,1-.3-2.68,12.25,12.25,0,0,1,2.47-7.39,6.12,6.12,0,0,1,.39-.5A12.34,12.34,0,0,1,61.6,37.76L62,38a12.15,12.15,0,0,1,1.09.93l.31.31a12.66,12.66,0,0,1,1.62,2c.07.12.15.23.21.35A9.92,9.92,0,0,1,65.86,43a2.17,2.17,0,0,1,.15.35,10.93,10.93,0,0,1,.39,1.14c0,.12.07.24.1.37A12.25,12.25,0,0,1,66.88,47.88Z" transform="translate(109.82 80.47)"/><path class="cls-127" d="M65.41,47.88a12.53,12.53,0,0,1-.12,1.64l-.07.34a9.29,9.29,0,0,1-.41,1.57c0,.12-.08.24-.13.36a11,11,0,0,1-3.83,4.94,4,4,0,0,0-.34.23,10.85,10.85,0,0,1-6,1.78,10.42,10.42,0,0,1-3.18-.48l-.4-.12a10.88,10.88,0,0,1-5.91-5c-.06-.1-.11-.2-.16-.3A10.71,10.71,0,0,1,44,50.57a3.38,3.38,0,0,1-.08-.34,10.64,10.64,0,0,1-.26-2.35,10.84,10.84,0,0,1,2.17-6.51c.11-.15.23-.29.34-.43a10.87,10.87,0,0,1,14.55-2,3.55,3.55,0,0,1,.31.23A8.31,8.31,0,0,1,62,40a3.45,3.45,0,0,1,.28.26,11.25,11.25,0,0,1,1.42,1.8c.07.1.13.2.19.3a11.87,11.87,0,0,1,.6,1.18,2.88,2.88,0,0,1,.13.31c.13.32.24.66.34,1l.09.32A10.83,10.83,0,0,1,65.41,47.88Z" transform="translate(109.82 80.47)"/><path class="cls-128" d="M63,47.88a9.08,9.08,0,0,1-.1,1.28l0,.26a9.93,9.93,0,0,1-.32,1.22c0,.09-.07.19-.11.28a8.5,8.5,0,0,1-3,3.84l-.26.18a8.45,8.45,0,0,1-7.1,1l-.31-.1A8.41,8.41,0,0,1,47.17,52l-.12-.23A8.5,8.5,0,0,1,46.37,50l-.06-.26a8.48,8.48,0,0,1-.2-1.83,8.39,8.39,0,0,1,1.69-5.06l.26-.34a8.45,8.45,0,0,1,6.49-3A8.37,8.37,0,0,1,59.37,41l.24.17a9.06,9.06,0,0,1,.75.64l.21.2a8.33,8.33,0,0,1,1.11,1.4,1.88,1.88,0,0,1,.14.24,6,6,0,0,1,.47.91,2.44,2.44,0,0,1,.1.24c.1.26.19.51.27.78a2.33,2.33,0,0,0,.07.25A8.49,8.49,0,0,1,63,47.88Z" transform="translate(109.82 80.47)"/><path class="cls-129" d="M63,47.88a9.08,9.08,0,0,1-.1,1.28c0,.09,0,.17,0,.26a9.93,9.93,0,0,1-.32,1.22c0,.09-.07.19-.11.28a8.38,8.38,0,0,1-3,3.84l-.26.18a8.45,8.45,0,0,1-7.1,1l-.31-.1a8.38,8.38,0,0,1-3.28-2.09A8.51,8.51,0,0,0,50.74,55l.31.1a8.41,8.41,0,0,0,7.1-1,2.4,2.4,0,0,0,.26-.18,8.35,8.35,0,0,0,3-3.83l.11-.29a9.33,9.33,0,0,0,.32-1.21c0-.09,0-.18,0-.27A8.82,8.82,0,0,0,62,47a8.49,8.49,0,0,0-.26-2.09c0-.09-.05-.17-.07-.25q-.12-.41-.27-.78a2.44,2.44,0,0,0-.1-.24,6.64,6.64,0,0,0-.47-.92,1.76,1.76,0,0,0-.14-.23,8,8,0,0,0-1.08-1.37l0,0a9.06,9.06,0,0,1,.75.64l.21.2a8.33,8.33,0,0,1,1.11,1.4c0,.08.1.15.14.23a8,8,0,0,1,.47.92,2.44,2.44,0,0,1,.1.24c.1.26.19.51.27.78a2.33,2.33,0,0,0,.07.25A8.49,8.49,0,0,1,63,47.88Z" transform="translate(109.82 80.47)"/><path class="cls-129" d="M48.68,43.46A8.39,8.39,0,0,0,47,48.52a8.48,8.48,0,0,0,.2,1.83l.06.26a8.5,8.5,0,0,0,.68,1.78l.12.23a8.63,8.63,0,0,0,2,2.43A8.57,8.57,0,0,1,47.17,52l-.12-.23A8.5,8.5,0,0,1,46.37,50l-.06-.26a8.48,8.48,0,0,1-.2-1.83,8.39,8.39,0,0,1,1.69-5.06l.26-.34A8.43,8.43,0,0,1,59.37,41l.24.17.3.24a8.44,8.44,0,0,0-11,1.75Z" transform="translate(109.82 80.47)"/><path class="cls-130" d="M62.16,47.91A7.08,7.08,0,0,1,62.07,49a2,2,0,0,1,0,.24,7.78,7.78,0,0,1-.28,1.08,1.86,1.86,0,0,1-.1.25A7.53,7.53,0,0,1,59,54l-.23.16a7.57,7.57,0,0,1-4.13,1.23,7.33,7.33,0,0,1-2.2-.33L52.17,55a7.49,7.49,0,0,1-3.46-2.5l.22.08a7.65,7.65,0,0,0,2.2.32,7.48,7.48,0,0,0,4.13-1.23l.23-.16a7.5,7.5,0,0,0,2.65-3.41,2.6,2.6,0,0,0,.1-.25,7.56,7.56,0,0,0,.28-1.09c0-.07,0-.15,0-.23a7.11,7.11,0,0,0,.09-1.14,7.65,7.65,0,0,0-.24-1.86l-.06-.22a5.1,5.1,0,0,0-.24-.69A1,1,0,0,0,58,42.4a7.68,7.68,0,0,0-.41-.81l-.13-.21c-.13-.2-.26-.39-.41-.58a7.49,7.49,0,0,1,1.87,1l.21.15a6,6,0,0,1,.67.57l.18.18a6.91,6.91,0,0,1,1,1.24,2.39,2.39,0,0,1,.13.21,5.75,5.75,0,0,1,.42.82l.09.21c.09.23.16.46.23.69s0,.15.07.23A7.58,7.58,0,0,1,62.16,47.91Z" transform="translate(109.82 80.47)"/><g class="cls-131"><path class="cls-132" d="M54.76,42.61a.68.68,0,0,1-.42.41c-.7.34-1.46.62-2.18.89a12.56,12.56,0,0,0-3.76,1.9c-.07.06-.17.15-.16.24s.29.14.43.13c1.11-.09,2.25-.13,3.37-.11a1.57,1.57,0,0,1,.55.07.65.65,0,0,1,.41.45.62.62,0,0,1-.22.58,1.47,1.47,0,0,1-.48.28L46.37,50l-.06-.26,5.89-2.5a1.66,1.66,0,0,0,.41-.23.33.33,0,0,0-.12-.6,1.58,1.58,0,0,0-.46-.05c-1.11,0-2.23,0-3.34.11-.41,0-.68-.1-.71-.36a.55.55,0,0,1,.26-.47,12.76,12.76,0,0,1,3.82-1.94c.73-.27,1.47-.55,2.17-.88.13-.07.25-.14.28-.25a.26.26,0,0,0-.14-.27.85.85,0,0,0-.42-.11,17,17,0,0,0-6.15.66l.26-.34A16.82,16.82,0,0,1,54,41.9a1.19,1.19,0,0,1,.54.15A.52.52,0,0,1,54.76,42.61Z" transform="translate(109.82 80.47)"/><path class="cls-132" d="M62.39,44.76a16,16,0,0,1-4.81.74,15,15,0,0,1-1.77-.1A.94.94,0,0,1,55,45a.83.83,0,0,1,0-.64A4.48,4.48,0,0,1,57.28,42c.41-.23.84-.42,1.26-.61l.83-.39.24.17-1,.45c-.41.19-.84.39-1.24.61a4.26,4.26,0,0,0-2.16,2.22.6.6,0,0,0,0,.45c.1.2.38.26.62.28a15.64,15.64,0,0,0,6.45-.62A2.44,2.44,0,0,1,62.39,44.76Z" transform="translate(109.82 80.47)"/><path class="cls-132" d="M61.82,43.61a31.91,31.91,0,0,1-4,.6h-.13c-.3,0-.48-.09-.56-.27s0-.47.32-.7a9.5,9.5,0,0,1,2.91-1.47l.21.2a9.25,9.25,0,0,0-3,1.48c-.07,0-.3.24-.24.38s.26.13.43.12a30,30,0,0,0,3.88-.58A1.88,1.88,0,0,1,61.82,43.61Z" transform="translate(109.82 80.47)"/><path class="cls-132" d="M62.89,49.16l0,.26-.94.1h-.29a.92.92,0,0,1-.29,0,.63.63,0,0,1-.47-.45,1.41,1.41,0,0,1,0-.2.76.76,0,0,0,0-.16c-.05-.16-.32-.19-.53-.19h-2.8c-.13,0-.48,0-.62-.26s0-.51.24-.69a4.65,4.65,0,0,1,1.47-.75c1.33-.49,2.71-.88,4.06-1.26a2.33,2.33,0,0,0,.07.25c-1.35.38-2.72.77-4,1.25a4.16,4.16,0,0,0-1.39.71c-.12.11-.23.27-.18.37s.17.12.38.12h2.81c.43,0,.69.12.78.37a1.1,1.1,0,0,1,0,.25.61.61,0,0,0,0,.14.37.37,0,0,0,.28.25,1.54,1.54,0,0,0,.48,0Z" transform="translate(109.82 80.47)"/><path class="cls-132" d="M56.63,49.73a.55.55,0,0,1-.29.35L51.55,53c-.25.15-.36.28-.33.4s.45.22.53.21A9.91,9.91,0,0,0,54,53.29a1.35,1.35,0,0,1,.49-.06.5.5,0,0,1,.44.37c.07.32-.27.55-.38.63L52.08,56l-.31-.1L54.39,54c.2-.14.29-.26.27-.37a.25.25,0,0,0-.22-.16,1.28,1.28,0,0,0-.38,0,10.62,10.62,0,0,1-2.3.32c-.45,0-.75-.14-.8-.42s.32-.6.45-.67l4.79-2.91c.09-.06.16-.11.17-.17s0-.12-.13-.14a.71.71,0,0,0-.32,0C53,50.23,50,51,47.17,52l-.12-.23c2.89-1,5.84-1.77,8.81-2.43a1,1,0,0,1,.45,0A.41.41,0,0,1,56.63,49.73Z" transform="translate(109.82 80.47)"/><path class="cls-132" d="M62.53,50.64c0,.09-.07.19-.11.28a10.85,10.85,0,0,0-1.76.46,5.1,5.1,0,0,0-2.11,1.35,1.32,1.32,0,0,0-.4.83,1.23,1.23,0,0,0,.59.86,2.83,2.83,0,0,0,.7.34l-.26.18a3.19,3.19,0,0,1-.58-.3,1.4,1.4,0,0,1-.71-1.07,1.56,1.56,0,0,1,.46-1,5.47,5.47,0,0,1,2.22-1.43A12.49,12.49,0,0,1,62.53,50.64Z" transform="translate(109.82 80.47)"/></g><path class="cls-133" d="M51.63,41.32a8.61,8.61,0,0,0-3.74,4.83,6.83,6.83,0,0,0-.35,2.76,4,4,0,0,0,1.18,2.48,4.79,4.79,0,0,0,2.81,1.08,5,5,0,0,0,2.68-.37,5.31,5.31,0,0,0,1.88-1.71,10.67,10.67,0,0,0,2-6,10.49,10.49,0,0,0-.41-3.15c-.23-.8-1.93-.87-2.63-.87A6.69,6.69,0,0,0,51.63,41.32Z" transform="translate(109.82 80.47)"/><path class="cls-129" d="M50.64,42.31a4.58,4.58,0,0,0-1.21,1.89,2.89,2.89,0,0,0,.2,2.2,3.78,3.78,0,0,0,2.09,1.51,4.3,4.3,0,0,0,2.8.21,3.3,3.3,0,0,0,1.6-1.2A5,5,0,0,0,57,45.08a5.56,5.56,0,0,0,.13-2.22,3.82,3.82,0,0,0-.68-1.62,1.27,1.27,0,0,0-1-.6,5.63,5.63,0,0,0-3.2.58A6,6,0,0,0,50.64,42.31Z" transform="translate(109.82 80.47)"/><path class="cls-129" d="M48.38,49.07a2.47,2.47,0,0,0,1.46,1.47,1.55,1.55,0,0,0,1.74-.25,1.34,1.34,0,0,0,0-1.56,3.12,3.12,0,0,0-1.3-1c-.32-.16-.66-.31-1-.45s-.45-.09-.66.21A1.85,1.85,0,0,0,48.38,49.07Z" transform="translate(109.82 80.47)"/><path class="cls-134" d="M52.53,41.64a1.57,1.57,0,0,0-.44.58.83.83,0,0,0,0,.72,1,1,0,0,0,.7.39,2.23,2.23,0,0,0,1.44-.16,1.57,1.57,0,0,0,.87-1.12c.09-.5-.16-1.28-.77-1.23A3.26,3.26,0,0,0,52.53,41.64Z" transform="translate(109.82 80.47)"/><path class="cls-134" d="M52.05,43.71a.73.73,0,0,1-.72.73.73.73,0,0,1-.73-.73.73.73,0,0,1,.73-.72A.72.72,0,0,1,52.05,43.71Z" transform="translate(109.82 80.47)"/><path class="cls-135" d="M486.82,75.65a6.72,6.72,0,1,1-6.72-6.72A6.72,6.72,0,0,1,486.82,75.65Z" transform="translate(109.82 80.47)"/><circle class="cls-136" cx="589.93" cy="156.12" r="5.97"/><path class="cls-137" d="M484.92,75.65a4.82,4.82,0,1,1-4.82-4.82A4.82,4.82,0,0,1,484.92,75.65Z" transform="translate(109.82 80.47)"/><path class="cls-138" d="M484.92,75.65a4.81,4.81,0,0,1-9.53,1,4.82,4.82,0,0,0,9.37-1.57,4.62,4.62,0,0,0-.1-1A4.89,4.89,0,0,1,484.92,75.65Z" transform="translate(109.82 80.47)"/><path class="cls-138" d="M484.9,75.2a4.82,4.82,0,0,0-9.54,1c0,.15,0,.3,0,.44a4.82,4.82,0,1,1,9.52-1.39Z" transform="translate(109.82 80.47)"/><path class="cls-139" d="M484.26,75.7a4.1,4.1,0,0,1-7.54,2.22,4,4,0,0,0,2.22.65,4.1,4.1,0,0,0,3.44-6.31A4.09,4.09,0,0,1,484.26,75.7Z" transform="translate(109.82 80.47)"/><path class="cls-140" d="M476,77.11a4,4,0,0,0,.77,1.33,1.39,1.39,0,0,0,.89.58.52.52,0,0,0,.4-.11.73.73,0,0,0,.11-.65,5.63,5.63,0,0,0-.41-1.44,3,3,0,0,0-.93-1.16,1.28,1.28,0,0,0-.41-.19C475.58,75.3,475.83,76.68,476,77.11Z" transform="translate(109.82 80.47)"/><path class="cls-140" d="M478.77,73.14a3.16,3.16,0,0,0,1.26-.38,1.48,1.48,0,0,0,.73-.69.57.57,0,0,0,.05-.4.49.49,0,0,0-.46-.28,3.84,3.84,0,0,0-1.22,0,2.65,2.65,0,0,0-1.19.58,1.26,1.26,0,0,0-.27.33C477.28,73,478.41,73.15,478.77,73.14Z" transform="translate(109.82 80.47)"/><path class="cls-140" d="M482.1,72.63a1.59,1.59,0,0,0,.91.5.42.42,0,0,0,.25,0,.37.37,0,0,0,.14-.39,1.21,1.21,0,0,0-.55-.84c-.24-.15-.71-.37-1-.15S481.93,72.43,482.1,72.63Z" transform="translate(109.82 80.47)"/><path class="cls-140" d="M482.9,74.32a.36.36,0,0,0,.35,0,.35.35,0,0,0,.16-.37c-.06-.29-.45-.64-.75-.46S482.68,74.18,482.9,74.32Z" transform="translate(109.82 80.47)"/><path class="cls-140" d="M481.71,76.62a1.93,1.93,0,0,0-.5,1.22,1,1,0,0,0,.74,1,1.16,1.16,0,0,0,.71-.1A2.22,2.22,0,0,0,484,77.1a1.46,1.46,0,0,0-.13-1,.84.84,0,0,0-1-.4A3.61,3.61,0,0,0,481.71,76.62Z" transform="translate(109.82 80.47)"/><path class="cls-140" d="M476.63,74.59a.62.62,0,0,0,.21.44.71.71,0,0,0,.39.16.51.51,0,0,0,.39-.16.55.55,0,0,0,0-.7C477.28,74,476.64,74,476.63,74.59Z" transform="translate(109.82 80.47)"/><path class="cls-140" d="M478.41,75c.48-.1.2-.77-.22-.67S478,75,478.41,75Z" transform="translate(109.82 80.47)"/><path class="cls-140" d="M480.42,75.84a.66.66,0,1,1-.66-.65A.65.65,0,0,1,480.42,75.84Z" transform="translate(109.82 80.47)"/><path class="cls-140" d="M479.11,79.28a.36.36,0,0,1-.37.37.37.37,0,0,1-.37-.37.38.38,0,0,1,.37-.37A.37.37,0,0,1,479.11,79.28Z" transform="translate(109.82 80.47)"/><path class="cls-140" d="M484.65,75.77a.32.32,0,0,1-.32.32.32.32,0,1,1,0-.63A.32.32,0,0,1,484.65,75.77Z" transform="translate(109.82 80.47)"/><path class="cls-140" d="M477.37,73a.27.27,0,1,1-.27-.27A.27.27,0,0,1,477.37,73Z" transform="translate(109.82 80.47)"/><path class="cls-141" d="M481.64,72a3.38,3.38,0,0,0-2.94-.23,4.44,4.44,0,0,0-2.22,2,3.75,3.75,0,0,0-.48,1.41,2.33,2.33,0,0,0,.27,1.44,2.84,2.84,0,0,0,1.5,1.18,3.76,3.76,0,0,0,1.65.28,2.81,2.81,0,0,0,1.55-.56A3.61,3.61,0,0,0,482,76a7.84,7.84,0,0,0,.56-2.07,2.62,2.62,0,0,0,0-.79,1.27,1.27,0,0,0-.36-.65A2.35,2.35,0,0,0,481.64,72Z" transform="translate(109.82 80.47)"/><path class="cls-138" d="M478.65,72.23a2.3,2.3,0,0,0-.88,1.07,1.77,1.77,0,0,0,1.38,2.45,2.16,2.16,0,0,0,1.72-.5,2.63,2.63,0,0,0,.85-1.59,2.33,2.33,0,0,0,0-.91c-.06-.24-.16-.58-.39-.7a2.75,2.75,0,0,0-1.74-.21A2.54,2.54,0,0,0,478.65,72.23Z" transform="translate(109.82 80.47)"/><path class="cls-138" d="M476.23,75.76a.94.94,0,0,0,.29.73.78.78,0,0,0,.76.17.82.82,0,0,0,.46-.4,1.14,1.14,0,0,0,.05-1c-.12-.3-.51-.72-.87-.56A1.19,1.19,0,0,0,476.23,75.76Z" transform="translate(109.82 80.47)"/><path class="cls-138" d="M479.52,72.17a.66.66,0,0,0-.29.4.72.72,0,0,0,.37.65,1.14,1.14,0,0,0,.88.15.9.9,0,0,0,.65-.59c.1-.34,0-.77-.41-.81A1.62,1.62,0,0,0,479.52,72.17Z" transform="translate(109.82 80.47)"/><path class="cls-138" d="M479.43,73.44a.47.47,0,0,1-.46.47.47.47,0,1,1,.46-.47Z" transform="translate(109.82 80.47)"/><circle class="cls-142" cx="464.19" cy="94.09" r="10.67" transform="translate(406.78 617.68) rotate(-80.78)"/><circle class="cls-143" cx="464.19" cy="94.09" r="9.49" transform="translate(109.15 265.27) rotate(-22.5)"/><circle class="cls-137" cx="464.19" cy="94.09" r="7.66" transform="translate(109.15 265.27) rotate(-22.5)"/><path class="cls-138" d="M471.84,94.09a7.66,7.66,0,0,1-15.15,1.57,7.66,7.66,0,0,0,14.9-2.5,7.93,7.93,0,0,0-.16-1.56A7.6,7.6,0,0,1,471.84,94.09Z" transform="translate(109.82 80.47)"/><path class="cls-138" d="M471.81,93.39a7.66,7.66,0,0,0-15.17,1.51,5.37,5.37,0,0,0,0,.7,7.51,7.51,0,0,1-.15-1.51,7.66,7.66,0,0,1,15.28-.7Z" transform="translate(109.82 80.47)"/><path class="cls-139" d="M470.78,94.18a6.5,6.5,0,0,1-12,3.53,6.43,6.43,0,0,0,3.52,1,6.5,6.5,0,0,0,5.46-10A6.5,6.5,0,0,1,470.78,94.18Z" transform="translate(109.82 80.47)"/><path class="cls-140" d="M457.61,96.41a6.15,6.15,0,0,0,1.21,2.12,2.3,2.3,0,0,0,1.42.93.84.84,0,0,0,.63-.18,1.15,1.15,0,0,0,.18-1,8.6,8.6,0,0,0-.66-2.29,4.67,4.67,0,0,0-1.48-1.84,1.66,1.66,0,0,0-.64-.31C457,93.55,457.39,95.74,457.61,96.41Z" transform="translate(109.82 80.47)"/><path class="cls-140" d="M462.07,90.1a4.61,4.61,0,0,0,2-.59,2.4,2.4,0,0,0,1.17-1.1,1,1,0,0,0,.07-.64c-.1-.32-.43-.4-.72-.44a6.08,6.08,0,0,0-1.95,0,4,4,0,0,0-1.88.92,2.47,2.47,0,0,0-.44.52C459.7,89.93,461.49,90.13,462.07,90.1Z" transform="translate(109.82 80.47)"/><path class="cls-140" d="M467.36,89.3a2.48,2.48,0,0,0,1.44.8.61.61,0,0,0,.4,0,.62.62,0,0,0,.23-.61,1.88,1.88,0,0,0-.89-1.33c-.37-.25-1.12-.6-1.53-.25S467.09,89,467.36,89.3Z" transform="translate(109.82 80.47)"/><path class="cls-140" d="M468.63,92a.59.59,0,0,0,.56,0,.55.55,0,0,0,.24-.6c-.09-.46-.71-1-1.19-.73S468.28,91.77,468.63,92Z" transform="translate(109.82 80.47)"/><path class="cls-140" d="M466.74,95.64a3.09,3.09,0,0,0-.8,1.94,1.66,1.66,0,0,0,1.17,1.61,2,2,0,0,0,1.14-.16,3.59,3.59,0,0,0,2.1-2.63,2.3,2.3,0,0,0-.22-1.57,1.33,1.33,0,0,0-1.63-.64A5.75,5.75,0,0,0,466.74,95.64Z" transform="translate(109.82 80.47)"/><path class="cls-140" d="M458.67,92.41a.9.9,0,0,0,.33.7,1,1,0,0,0,.62.25.77.77,0,0,0,.61-.25.85.85,0,0,0,0-1.11C459.69,91.45,458.69,91.54,458.67,92.41Z" transform="translate(109.82 80.47)"/><path class="cls-140" d="M461.49,93c.76-.17.32-1.22-.35-1.07S460.86,93.13,461.49,93Z" transform="translate(109.82 80.47)"/><path class="cls-140" d="M464.68,94.4a1,1,0,1,1-1-1A1,1,0,0,1,464.68,94.4Z" transform="translate(109.82 80.47)"/><circle class="cls-140" cx="571.85" cy="180.34" r="0.59"/><path class="cls-140" d="M471.4,94.29a.51.51,0,0,1-.5.51.51.51,0,1,1,.5-.51Z" transform="translate(109.82 80.47)"/><circle class="cls-140" cx="569.23" cy="170.33" r="0.43"/><path class="cls-144" d="M466.63,88.28a5.29,5.29,0,0,0-4.67-.35,7,7,0,0,0-3.54,3.19,6.09,6.09,0,0,0-.76,2.23,3.87,3.87,0,0,0,.43,2.29,4.57,4.57,0,0,0,2.39,1.88,6.31,6.31,0,0,0,2.61.45,4.48,4.48,0,0,0,2.47-.9,6,6,0,0,0,1.64-2.37,11.81,11.81,0,0,0,.88-3.28,4.43,4.43,0,0,0,0-1.26,2,2,0,0,0-.57-1A4.18,4.18,0,0,0,466.63,88.28Z" transform="translate(109.82 80.47)"/><path class="cls-138" d="M461.87,88.66a3.64,3.64,0,0,0-1.4,1.7,3,3,0,0,0,0,2.18,2.92,2.92,0,0,0,2.21,1.72,3.44,3.44,0,0,0,2.73-.79,4.13,4.13,0,0,0,1.35-2.53,3.93,3.93,0,0,0-.05-1.45,1.7,1.7,0,0,0-.62-1.11,4.24,4.24,0,0,0-2.76-.33A4.12,4.12,0,0,0,461.87,88.66Z" transform="translate(109.82 80.47)"/><path class="cls-138" d="M458,94.28a1.52,1.52,0,0,0,.47,1.15,1.24,1.24,0,0,0,1.19.28,1.41,1.41,0,0,0,.74-.64,1.77,1.77,0,0,0,.08-1.54c-.2-.48-.81-1.15-1.39-.9A1.91,1.91,0,0,0,458,94.28Z" transform="translate(109.82 80.47)"/><path class="cls-138" d="M463.26,88.56a1.06,1.06,0,0,0-.46.64,1.07,1.07,0,0,0,.59,1,1.82,1.82,0,0,0,1.4.25,1.46,1.46,0,0,0,1-.94.93.93,0,0,0-.66-1.28A2.57,2.57,0,0,0,463.26,88.56Z" transform="translate(109.82 80.47)"/><path class="cls-138" d="M463.11,90.59a.73.73,0,0,1-.73.74.74.74,0,1,1,0-1.47A.73.73,0,0,1,463.11,90.59Z" transform="translate(109.82 80.47)"/><circle class="cls-145" cx="696.54" cy="105.41" r="10.67" transform="translate(239.3 603.87) rotate(-45)"/><circle class="cls-146" cx="696.54" cy="105.41" r="9.49" transform="translate(239.3 603.87) rotate(-45)"/><circle class="cls-137" cx="696.54" cy="105.41" r="7.66" transform="translate(239.3 603.87) rotate(-45)"/><path class="cls-138" d="M704.2,105.41A7.66,7.66,0,0,1,689,107a7.66,7.66,0,0,0,14.9-2.5,7.31,7.31,0,0,0-.16-1.56A7.62,7.62,0,0,1,704.2,105.41Z" transform="translate(109.82 80.47)"/><path class="cls-138" d="M704.16,104.7A7.65,7.65,0,0,0,689,106.21c0,.24,0,.47,0,.7a7.41,7.41,0,0,1-.15-1.5,7.66,7.66,0,0,1,15.28-.71Z" transform="translate(109.82 80.47)"/><path class="cls-139" d="M703.14,105.5a6.51,6.51,0,0,1-12,3.53,6.5,6.5,0,0,0,9-9A6.48,6.48,0,0,1,703.14,105.5Z" transform="translate(109.82 80.47)"/><path class="cls-140" d="M690,107.73a6.11,6.11,0,0,0,1.21,2.11,2.3,2.3,0,0,0,1.42.93.78.78,0,0,0,.63-.18,1.12,1.12,0,0,0,.18-1,8.71,8.71,0,0,0-.66-2.29,4.56,4.56,0,0,0-1.47-1.84,1.63,1.63,0,0,0-.64-.3C689.35,104.86,689.75,107.05,690,107.73Z" transform="translate(109.82 80.47)"/><path class="cls-140" d="M694.42,101.42a4.77,4.77,0,0,0,2-.6,2.4,2.4,0,0,0,1.17-1.1.9.9,0,0,0,.07-.64c-.1-.32-.43-.4-.72-.44a6.09,6.09,0,0,0-1.95,0,4,4,0,0,0-1.87.91,1.89,1.89,0,0,0-.44.53C692.05,101.25,693.84,101.44,694.42,101.42Z" transform="translate(109.82 80.47)"/><path class="cls-140" d="M699.71,100.61a2.48,2.48,0,0,0,1.44.8.64.64,0,0,0,.41,0,.59.59,0,0,0,.22-.61,1.91,1.91,0,0,0-.88-1.33c-.38-.24-1.13-.6-1.54-.25S699.44,100.3,699.71,100.61Z" transform="translate(109.82 80.47)"/><path class="cls-140" d="M701,103.29a.57.57,0,0,0,.56,0,.58.58,0,0,0,.25-.6c-.09-.46-.71-1-1.19-.73S700.63,103.08,701,103.29Z" transform="translate(109.82 80.47)"/><path class="cls-140" d="M699.09,107a3,3,0,0,0-.79,1.94,1.65,1.65,0,0,0,1.17,1.61,1.93,1.93,0,0,0,1.13-.16,3.55,3.55,0,0,0,2.1-2.62,2.27,2.27,0,0,0-.22-1.58,1.35,1.35,0,0,0-1.63-.64A6,6,0,0,0,699.09,107Z" transform="translate(109.82 80.47)"/><path class="cls-140" d="M691,103.73a.93.93,0,0,0,.33.69,1,1,0,0,0,.62.26.84.84,0,0,0,.62-.25.86.86,0,0,0-.05-1.12C692,102.76,691,102.86,691,103.73Z" transform="translate(109.82 80.47)"/><path class="cls-140" d="M693.85,104.3c.75-.16.31-1.22-.36-1.07S693.21,104.44,693.85,104.3Z" transform="translate(109.82 80.47)"/><path class="cls-140" d="M697,105.72a1,1,0,1,1-1-1A1,1,0,0,1,697,105.72Z" transform="translate(109.82 80.47)"/><circle class="cls-140" cx="804.2" cy="191.65" r="0.59"/><path class="cls-140" d="M703.75,105.61a.5.5,0,1,1-.5-.51A.5.5,0,0,1,703.75,105.61Z" transform="translate(109.82 80.47)"/><circle class="cls-140" cx="801.58" cy="181.64" r="0.43"/><path class="cls-147" d="M699,99.59a5.36,5.36,0,0,0-4.67-.35,7.05,7.05,0,0,0-3.54,3.19,5.89,5.89,0,0,0-.75,2.23,3.79,3.79,0,0,0,.42,2.29,4.55,4.55,0,0,0,2.4,1.88,6.11,6.11,0,0,0,2.6.45,4.41,4.41,0,0,0,2.47-.9,5.84,5.84,0,0,0,1.65-2.37,12.34,12.34,0,0,0,.88-3.28,4,4,0,0,0,0-1.25,2,2,0,0,0-.57-1A4,4,0,0,0,699,99.59Z" transform="translate(109.82 80.47)"/><path class="cls-138" d="M694.22,100a3.74,3.74,0,0,0-1.4,1.7,3,3,0,0,0,0,2.19,2.91,2.91,0,0,0,2.22,1.71,3.41,3.41,0,0,0,2.72-.79,4.17,4.17,0,0,0,1.36-2.52,3.78,3.78,0,0,0-.06-1.46c-.09-.37-.25-.92-.62-1.11a4.21,4.21,0,0,0-2.75-.32A4.07,4.07,0,0,0,694.22,100Z" transform="translate(109.82 80.47)"/><path class="cls-138" d="M690.38,105.59a1.52,1.52,0,0,0,.47,1.16,1.25,1.25,0,0,0,1.2.27,1.39,1.39,0,0,0,.73-.64,1.81,1.81,0,0,0,.09-1.54c-.21-.48-.82-1.15-1.4-.9A1.94,1.94,0,0,0,690.38,105.59Z" transform="translate(109.82 80.47)"/><path class="cls-138" d="M695.61,99.88a.91.91,0,0,0,.13,1.66,1.82,1.82,0,0,0,1.4.25,1.46,1.46,0,0,0,1-.94c.16-.54,0-1.22-.65-1.28A2.54,2.54,0,0,0,695.61,99.88Z" transform="translate(109.82 80.47)"/><path class="cls-138" d="M695.47,101.9a.74.74,0,1,1-.74-.73A.74.74,0,0,1,695.47,101.9Z" transform="translate(109.82 80.47)"/><circle class="cls-148" cx="774.16" cy="119.25" r="6.6"/><circle class="cls-149" cx="774.16" cy="119.25" r="5.87"/><circle class="cls-137" cx="774.16" cy="119.25" r="4.74"/><path class="cls-138" d="M669.07,38.79a4.73,4.73,0,0,1-9.37,1,4.73,4.73,0,0,0,9.21-1.54,4.43,4.43,0,0,0-.1-1A4.63,4.63,0,0,1,669.07,38.79Z" transform="translate(109.82 80.47)"/><path class="cls-138" d="M669.05,38.35a4.74,4.74,0,0,0-9.38.93c0,.15,0,.29,0,.44a4.81,4.81,0,0,1-.09-.93,4.74,4.74,0,0,1,9.45-.44Z" transform="translate(109.82 80.47)"/><path class="cls-139" d="M668.41,38.84A4,4,0,0,1,661,41a4,4,0,0,0,2.17.64,4,4,0,0,0,3.39-6.2A4,4,0,0,1,668.41,38.84Z" transform="translate(109.82 80.47)"/><path class="cls-140" d="M660.26,40.22a4,4,0,0,0,.75,1.31,1.42,1.42,0,0,0,.88.57.49.49,0,0,0,.39-.11.66.66,0,0,0,.11-.63,5.77,5.77,0,0,0-.4-1.42,2.86,2.86,0,0,0-.92-1.14,1.18,1.18,0,0,0-.39-.19C659.89,38.45,660.13,39.8,660.26,40.22Z" transform="translate(109.82 80.47)"/><path class="cls-140" d="M663,36.32a3,3,0,0,0,1.24-.37,1.48,1.48,0,0,0,.72-.68.62.62,0,0,0,0-.4.47.47,0,0,0-.44-.27,3.78,3.78,0,0,0-1.21,0,2.55,2.55,0,0,0-1.16.56,1.26,1.26,0,0,0-.27.33C661.56,36.21,662.67,36.33,663,36.32Z" transform="translate(109.82 80.47)"/><path class="cls-140" d="M666.3,35.82a1.47,1.47,0,0,0,.89.49.36.36,0,0,0,.25,0,.4.4,0,0,0,.14-.38,1.15,1.15,0,0,0-.55-.82c-.23-.15-.7-.37-.95-.16S666.13,35.62,666.3,35.82Z" transform="translate(109.82 80.47)"/><path class="cls-140" d="M667.08,37.48a.39.39,0,0,0,.35,0,.35.35,0,0,0,.15-.37c-.06-.29-.44-.64-.74-.46S666.87,37.35,667.08,37.48Z" transform="translate(109.82 80.47)"/><path class="cls-140" d="M665.91,39.74a1.89,1.89,0,0,0-.49,1.2,1,1,0,0,0,.72,1,1.24,1.24,0,0,0,.71-.1,2.23,2.23,0,0,0,1.3-1.63,1.47,1.47,0,0,0-.14-1,.83.83,0,0,0-1-.39A3.59,3.59,0,0,0,665.91,39.74Z" transform="translate(109.82 80.47)"/><path class="cls-140" d="M660.92,37.75a.58.58,0,0,0,.21.43.58.58,0,0,0,.38.15.5.5,0,0,0,.38-.15.53.53,0,0,0,0-.69C661.55,37.15,660.93,37.21,660.92,37.75Z" transform="translate(109.82 80.47)"/><path class="cls-140" d="M662.67,38.1c.47-.1.19-.75-.22-.66S662.27,38.19,662.67,38.1Z" transform="translate(109.82 80.47)"/><path class="cls-140" d="M664.64,39a.64.64,0,0,1-.64.64.65.65,0,0,1,0-1.29A.65.65,0,0,1,664.64,39Z" transform="translate(109.82 80.47)"/><circle class="cls-140" cx="772.82" cy="122.83" r="0.36"/><path class="cls-140" d="M668.8,38.91a.31.31,0,0,1-.31.31.31.31,0,1,1,0-.62A.31.31,0,0,1,668.8,38.91Z" transform="translate(109.82 80.47)"/><circle class="cls-140" cx="771.2" cy="116.63" r="0.27"/><path class="cls-150" d="M665.85,35.19A3.32,3.32,0,0,0,663,35a4.36,4.36,0,0,0-2.18,2,3.65,3.65,0,0,0-.47,1.38,2.32,2.32,0,0,0,.26,1.42A2.91,2.91,0,0,0,662,40.91a3.92,3.92,0,0,0,1.62.27,2.65,2.65,0,0,0,1.52-.56,3.58,3.58,0,0,0,1-1.46,7.54,7.54,0,0,0,.55-2,2.91,2.91,0,0,0,0-.78,1.3,1.3,0,0,0-.35-.64A2.71,2.71,0,0,0,665.85,35.19Z" transform="translate(109.82 80.47)"/><path class="cls-138" d="M662.9,35.42a2.4,2.4,0,0,0-.87,1,1.88,1.88,0,0,0,0,1.36,1.83,1.83,0,0,0,1.37,1.06,2.11,2.11,0,0,0,1.68-.49,2.57,2.57,0,0,0,.84-1.56,2.27,2.27,0,0,0,0-.9,1,1,0,0,0-.39-.69,2.56,2.56,0,0,0-1.7-.2A2.64,2.64,0,0,0,662.9,35.42Z" transform="translate(109.82 80.47)"/><path class="cls-138" d="M660.53,38.9a.94.94,0,0,0,.28.71.75.75,0,0,0,.74.17.81.81,0,0,0,.46-.39,1.09,1.09,0,0,0,0-1c-.12-.3-.5-.72-.86-.56A1.18,1.18,0,0,0,660.53,38.9Z" transform="translate(109.82 80.47)"/><path class="cls-138" d="M663.76,35.36a.58.58,0,0,0,.08,1,1.15,1.15,0,0,0,.87.15.88.88,0,0,0,.63-.58c.1-.34,0-.76-.4-.8A1.62,1.62,0,0,0,663.76,35.36Z" transform="translate(109.82 80.47)"/><path class="cls-138" d="M663.67,36.62a.45.45,0,0,1-.45.45.46.46,0,0,1-.46-.45.47.47,0,0,1,.46-.46A.46.46,0,0,1,663.67,36.62Z" transform="translate(109.82 80.47)"/><g class="cls-4"><path class="cls-151" d="M897.51,491a145.52,145.52,0,0,1-64.94,121.27c-1.33.88-2.65,1.77-4,2.61a145.61,145.61,0,0,1-51.77,19.72c-1.6.26-3.23.53-4.87.75-4.95.66-10,1.1-15.16,1.28-1.59,0-3.18.09-4.82.09h-.18a145.9,145.9,0,0,1-139-189.67c.49-1.5,1-3,1.55-4.55a143.5,143.5,0,0,1,24-42.93,135.54,135.54,0,0,1,9.16-10.3A145.21,145.21,0,0,1,695,356.73l.35-.14A145.88,145.88,0,0,1,845,379c1.15.93,2.25,1.9,3.36,2.83A145.38,145.38,0,0,1,897.51,491Z" transform="translate(109.82 80.47)"/><path class="cls-152" d="M876.33,491a124.37,124.37,0,0,1-55.51,103.64c-1.13.75-2.26,1.51-3.44,2.23a124.46,124.46,0,0,1-44.24,16.85c-1.36.23-2.76.45-4.16.64-4.23.57-8.57,1-13,1.1-1.36,0-2.72.07-4.12.07h-.15A124.69,124.69,0,0,1,632.92,453.48c.42-1.29.87-2.61,1.32-3.89a123,123,0,0,1,20.52-36.69,116.6,116.6,0,0,1,7.82-8.81,124.27,124.27,0,0,1,40.66-27.84l.3-.12A124.64,124.64,0,0,1,831.4,395.29c1,.79,1.93,1.63,2.87,2.42A124.22,124.22,0,0,1,876.33,491Z" transform="translate(109.82 80.47)"/><path class="cls-153" d="M847.85,491A96,96,0,0,1,805,571c-.87.58-1.75,1.16-2.65,1.72a96,96,0,0,1-34.13,13c-1,.17-2.13.35-3.21.49-3.26.44-6.61.73-10,.85-1,0-2.1.06-3.18.06h-.12a96.19,96.19,0,0,1-91.66-125c.32-1,.67-2,1-3a94.31,94.31,0,0,1,15.83-28.3,86.26,86.26,0,0,1,6-6.79,96,96,0,0,1,31.36-21.48l.23-.09a96.15,96.15,0,0,1,98.63,14.78c.76.61,1.49,1.25,2.22,1.86A95.87,95.87,0,0,1,847.85,491Z" transform="translate(109.82 80.47)"/><path class="cls-154" d="M830.93,436.57c-1.88-2-3.85-3.87-5.89-5.67-.72-.61-1.46-1.25-2.2-1.86a96.12,96.12,0,0,0-98.65-14.78c-.08,0-.14.06-.24.08a101,101,0,0,0-12.67,6.53,95,95,0,0,0-18.67,15,88.31,88.31,0,0,0-6,6.78,94.61,94.61,0,0,0-15.82,28.32c-.35,1-.7,2-1,3a96.31,96.31,0,0,0,12.44,83.37,96.29,96.29,0,0,1-22.08-95.22c.32-1,.67-2,1-3a94.5,94.5,0,0,1,15.82-28.3q2.85-3.54,6-6.8A95.49,95.49,0,0,1,701.64,409a96.81,96.81,0,0,1,12.69-6.53l.24-.1a96.21,96.21,0,0,1,98.63,14.78c.76.61,1.48,1.25,2.2,1.88A96.64,96.64,0,0,1,830.93,436.57Z" transform="translate(109.82 80.47)"/><path class="cls-154" d="M847.84,491A95.92,95.92,0,0,1,805,571c-.86.59-1.74,1.17-2.64,1.72a96.16,96.16,0,0,1-34.14,13c-1,.18-2.11.35-3.2.49-3.27.43-6.61.72-10,.84-1,0-2.09.06-3.16.06h-.12a96,96,0,0,1-74.15-34.92A95.81,95.81,0,0,0,742.1,577h.12c1.07,0,2.13,0,3.16-.06a96.67,96.67,0,0,0,10-.84c1.07-.13,2.15-.31,3.2-.49a95.5,95.5,0,0,0,34.12-13c.9-.55,1.78-1.13,2.66-1.72a96.11,96.11,0,0,0,20.92-141A95.74,95.74,0,0,1,847.84,491Z" transform="translate(109.82 80.47)"/><path class="cls-155" d="M832.37,493.07a79.42,79.42,0,0,1-35.45,66.19c-.71.48-1.44,1-2.19,1.42a79.63,79.63,0,0,1-28.26,10.77c-.86.14-1.75.29-2.66.4-2.7.36-5.47.6-8.27.7-.87,0-1.73.05-2.62.05h-.1a79.51,79.51,0,0,1-69.32-40.49,79.21,79.21,0,0,0,52.31,19.62h.1c.9,0,1.76,0,2.63-.05,2.81-.09,5.57-.34,8.28-.69.89-.13,1.78-.28,2.65-.42a80.05,80.05,0,0,0,28.27-10.75c.74-.47,1.47-1,2.18-1.43a79.56,79.56,0,0,0,25.22-105.24c.13.12.25.21.37.33A79.32,79.32,0,0,1,832.37,493.07Z" transform="translate(109.82 80.47)"/><g class="cls-131"><path class="cls-153" d="M762.45,420.88c-8,8.57-19.47,15-33.14,18.77C717,443,703.9,443.87,691.6,444.37l-2.1,0c-3.56,0-7.26-.47-9.88-3-3-2.8-3.38-6.94-2.68-10.61a86.26,86.26,0,0,1,6-6.79,22.81,22.81,0,0,0-2.51,4.89c-1.16,3.18-1.54,7.82,1.17,10.41,2.36,2.27,6.15,2.3,9.85,2.19,12.12-.47,25-1.35,37.07-4.64,13.15-3.55,24.14-9.76,31.77-17.92,1.34-1.46,4.34-5.16,2.8-8-.9-1.63-3.12-2.48-6.76-2.54a60,60,0,0,0-32.62,9,8.3,8.3,0,0,0-2.85,2.51,2.18,2.18,0,0,0,.08,2.44c.65.59,2,.5,2.92.38a38,38,0,0,0,12.88-4.13,1.44,1.44,0,0,1,2,.61,1.47,1.47,0,0,1-.58,2,40.88,40.88,0,0,1-13.87,4.43c-1.66.2-3.79.29-5.28-1.14a4.94,4.94,0,0,1-.64-6,10.67,10.67,0,0,1,3.85-3.56,63,63,0,0,1,34.22-9.44c4.78.09,7.81,1.43,9.23,4.05C767.4,412.69,766.24,416.83,762.45,420.88Z" transform="translate(109.82 80.47)"/><path class="cls-153" d="M830.68,505.34c-2.27,4.08-6.18,9-11.78,9.1h-.17c-3.85,0-7.55-2.34-11.37-7.12a67.37,67.37,0,0,1,4.34-88.69c.5-.49,1-1,1.49-1.45.76.61,1.49,1.25,2.22,1.86-.56.53-1.11,1-1.64,1.61a64.49,64.49,0,0,0-4.11,84.87c3.21,4.05,6.18,6,9.1,6h.11c4.2-.09,7.35-4.17,9.24-7.61,9.36-16.78,7.7-39.14-4-54.35-1.37-1.75-4-4.58-6.64-3.91s-3.5,4-4.11,6.85a46.57,46.57,0,0,0-1.55,11.63c.18,4.17,1.58,7.72,4,10,.64.61,1.92,1.63,3.2,1.45a1.8,1.8,0,0,0,1.23-.78.91.91,0,0,0,.14-.73,1.5,1.5,0,0,1,.93-1.84,1.47,1.47,0,0,1,1.84.94,3.63,3.63,0,0,1-.47,3.2,4.68,4.68,0,0,1-3.35,2.1,7.08,7.08,0,0,1-5.53-2.24c-2.92-2.8-4.67-7.06-4.87-12-.18-4.26.73-8.4,1.6-12.36.82-3.64,2.25-8,6.21-9,3.18-.84,6.61.91,9.7,4.93C838.78,463.9,840.56,487.56,830.68,505.34Z" transform="translate(109.82 80.47)"/><path class="cls-153" d="M715.41,533.44a24.87,24.87,0,0,1-18.77,9.18,19.79,19.79,0,0,1-4.55-.53c-5.39-1.28-10.43-4.86-14.25-10.08-2.92-4-5.13-8.86-7.14-15.65-3.09-10.38-2.51-18,1.75-23.23a14.68,14.68,0,0,1,23.37,17.75,1.42,1.42,0,0,1-2,.35,1.46,1.46,0,0,1-.35-2c3.44-4.87,2.27-12.59-2.48-16.18a12.32,12.32,0,0,0-16.26,2c-3.61,4.46-4,11.16-1.22,20.54,1.92,6.47,4,11,6.7,14.78a22.65,22.65,0,0,0,12.56,9c7.06,1.66,15.24-1.43,20.37-7.7,4.61-5.59,6.91-13.4,6.5-22-.72-16.06-11-31.83-26.14-40.22a62.21,62.21,0,0,0-33.4-7.26c.32-1,.67-2,1-3a65.22,65.22,0,0,1,33.81,7.72c16,8.86,26.84,25.59,27.63,42.61C723,518.75,720.45,527.29,715.41,533.44Z" transform="translate(109.82 80.47)"/><path class="cls-153" d="M779.56,520.29c-.27,17.2-3.59,34-6.76,48.15-1.26,5.48-2.66,11.37-4.55,17.26-1,.17-2.13.35-3.21.49,2-6.12,3.53-12.33,4.9-18.39,3.18-14,6.44-30.6,6.7-47.54.29-17.6-2.74-33.22-9-46.45-1.49-3.18-3.62-7.14-6.88-9.85s-7.26-3.68-10.52-2.6c-5.77,1.87-7.87,9.07-8.6,13.2a54.33,54.33,0,0,0,6.73,36.82c2.1,3.49,4.11,5.27,6.33,5.59,2.85.44,5.56-1.83,6.82-4.25,1.48-2.86,1.72-6.42,1.92-9.53.26-4.17.55-8.51-.64-12.48-1.25-4.14-4.23-7.23-7.58-7.93a1.45,1.45,0,0,1-1.13-1.72,1.48,1.48,0,0,1,1.71-1.13c4.41.9,8.22,4.81,9.8,9.94,1.34,4.48,1,9.26.76,13.52-.24,3.41-.5,7.26-2.25,10.67-1.69,3.23-5.48,6.44-9.85,5.8-4.14-.62-6.76-4.26-8.39-7a57.41,57.41,0,0,1-7.12-38.82c.88-4.78,3.39-13.15,10.61-15.48,4.2-1.37,9.27-.17,13.26,3.12,3.71,3.06,6,7.4,7.67,10.84C776.7,486.19,779.85,502.25,779.56,520.29Z" transform="translate(109.82 80.47)"/><path class="cls-153" d="M822.72,542.79a15.44,15.44,0,0,1-12.5,11.49,1.47,1.47,0,0,1-1.66-1.23,1.45,1.45,0,0,1,1.22-1.66,12.26,12.26,0,0,0,5.28-22.12c-4.93-3.44-12.65-2.74-17.64,1.63-4.54,4-7,10.82-6.44,17.81.76,8.77,6.21,17.17,14,22.27-.87.58-1.75,1.16-2.65,1.72-8-5.66-13.5-14.49-14.28-23.73-.7-8,2.07-15.59,7.4-20.28,6-5.28,15.16-6.06,21.22-1.78A15.47,15.47,0,0,1,822.72,542.79Z" transform="translate(109.82 80.47)"/><path class="cls-153" d="M758.31,570c.2,6-1.34,11.8-3.26,17-1,0-2.1.06-3.18.06,2-5.25,3.7-11.08,3.53-17-.24-7.54-3.91-14.39-9.39-17.42a15.54,15.54,0,0,0-12.82-.88,15.32,15.32,0,0,0-8.89,9.3,11.73,11.73,0,0,0,.41,9.3,8.09,8.09,0,0,0,7.31,4.57h.06a1.46,1.46,0,0,1,.06,2.92,11.36,11.36,0,0,1-10-6.15,14.86,14.86,0,0,1-.58-11.6,18.08,18.08,0,0,1,25.88-10C753.88,553.67,758.05,561.27,758.31,570Z" transform="translate(109.82 80.47)"/></g><path class="cls-156" d="M785.31,420.72c-6.32-3.33-13.49-4.75-20.62-5.2a81.62,81.62,0,0,0-80,49c-6.83,15.73-8.33,34.59-.23,49.71,5.67,10.57,15.57,18.47,26.53,23.35a73.62,73.62,0,0,0,70.57-6.63c20.28-14.08,32.43-39.14,30.9-63.78-.61-9.94-3.47-19.87-9.63-27.82C797.45,432.39,793.39,425,785.31,420.72Z" transform="translate(109.82 80.47)"/><path class="cls-154" d="M737.32,433.54a46.5,46.5,0,0,0-17,38.3c.93,14.48,9.56,28.32,22.34,35.19,13.83,7.42,31.78,6.15,44.64-2.84s20.17-25.21,18.79-40.84c-1.19-13.33-8.35-24.68-18.38-33.19-3.36-2.85-6.64-5.8-11.06-6.76-5.8-1.27-12.45-.77-18.21.37A48.36,48.36,0,0,0,737.32,433.54Z" transform="translate(109.82 80.47)"/><path class="cls-154" d="M701.69,472.8c-8.63,6.62-12.92,18.63-9.91,29.09s13.42,18.45,24.3,18.14c5.48-.16,11.52-3,12.81-8.32.89-3.65-.67-7.4-2.19-10.83L716,476.82C713,469.91,708.15,467.85,701.69,472.8Z" transform="translate(109.82 80.47)"/><path class="cls-154" d="M749.1,439.21c-2.51,3.92-4.16,8.55-3.73,13.19A18.46,18.46,0,0,0,751,463.68a21.45,21.45,0,0,0,36.41-16.6c-.49-8.45-6.89-17.06-15.15-19.52C763.51,425,753.53,432.29,749.1,439.21Z" transform="translate(109.82 80.47)"/><circle class="cls-154" cx="849.3" cy="550.55" r="9.64"/></g></g></g></svg>