<svg xmlns="http://www.w3.org/2000/svg" xmlns:xlink="http://www.w3.org/1999/xlink" viewBox="0 0 117.3 149.99"><defs><style>.cls-1{isolation:isolate;}.cls-2{fill:url(#Degradado_sin_nombre_4);}.cls-3{fill:#ff2f8d;}.cls-4{fill:#750336;}.cls-11,.cls-13,.cls-14,.cls-4,.cls-5,.cls-6,.cls-8{opacity:0.5;}.cls-13,.cls-4{mix-blend-mode:multiply;}.cls-11,.cls-14,.cls-5,.cls-6,.cls-8{mix-blend-mode:screen;}.cls-5{fill:url(#Degradado_sin_nombre_2);}.cls-6{fill:url(#Degradado_sin_nombre_2-2);}.cls-7{fill:#fff;}.cls-8{fill:url(#Degradado_sin_nombre_2-3);}.cls-9{fill:#13b5e3;}.cls-10{fill:#88e4ef;}.cls-11{fill:url(#Degradado_sin_nombre_3);}.cls-12,.cls-13,.cls-14{fill:#a8d7e3;}</style><linearGradient id="Degradado_sin_nombre_4" x1="113.74" y1="72.4" x2="125" y2="132.26" gradientTransform="translate(-65.77 72.57) rotate(-22.46)" gradientUnits="userSpaceOnUse"><stop offset="0.1" stop-color="#fcc006"/><stop offset="0.42" stop-color="#fcc006" stop-opacity="0.59"/><stop offset="0.7" stop-color="#fcc006" stop-opacity="0.27"/><stop offset="0.89" stop-color="#fcc006" stop-opacity="0.08"/><stop offset="0.98" stop-color="#fcc006" stop-opacity="0"/></linearGradient><linearGradient id="Degradado_sin_nombre_2" x1="62.58" y1="69.05" x2="70.78" y2="69.05" gradientTransform="translate(-65.77 72.57) rotate(-22.46)" gradientUnits="userSpaceOnUse"><stop offset="0" stop-color="#ff2f8d" stop-opacity="0"/><stop offset="0.48" stop-color="#ff2f8d"/><stop offset="1" stop-color="#ff2f8d" stop-opacity="0"/></linearGradient><linearGradient id="Degradado_sin_nombre_2-2" x1="145.3" y1="52.64" x2="163.16" y2="52.64" xlink:href="#Degradado_sin_nombre_2"/><linearGradient id="Degradado_sin_nombre_2-3" x1="90.58" y1="-31.45" x2="104.42" y2="-31.45" xlink:href="#Degradado_sin_nombre_2"/><linearGradient id="Degradado_sin_nombre_3" x1="92.5" y1="8.66" x2="109.18" y2="8.66" gradientTransform="translate(-65.77 72.57) rotate(-22.46)" gradientUnits="userSpaceOnUse"><stop offset="0.11" stop-color="#88e4ef" stop-opacity="0"/><stop offset="0.47" stop-color="#88e4ef"/><stop offset="0.93" stop-color="#88e4ef" stop-opacity="0"/></linearGradient></defs><g class="cls-1"><g id="Capa_2" data-name="Capa 2"><g id="BACKGROUND"><path class="cls-2" d="M82.6,95.14c4.22,6.19,27,50.3,20.76,54.52S64.42,116.6,60.2,110.41A13.55,13.55,0,0,1,82.6,95.14Z"/><path class="cls-3" d="M83.42,97a5.54,5.54,0,0,1-.33.51c-1.91,2.65-5.66,5.78-10,8.5-4.22,2.92-8.57,5.14-11.76,5.85a7.61,7.61,0,0,1-2.65.13c-4.16-.6-5.5-5.08-5.5-5.08l14.47-9.13L81.76,88S86.52,92,83.42,97Z"/><path class="cls-4" d="M83.42,97a4.67,4.67,0,0,0-1.68-.46,5.77,5.77,0,0,0-3.32,1c-1,.62-1.86,1.41-2.79,2.12-4.87,3.7-11.29,5.31-15.33,9.89A9.8,9.8,0,0,0,58.69,112c-4.16-.6-5.5-5.08-5.5-5.08l14.47-9.13L81.76,88S86.52,92,83.42,97Z"/><path class="cls-3" d="M47.74,101.53l-6.92,7.93a1.37,1.37,0,0,0-.34.82l-2.21,26a1.42,1.42,0,0,1-2.57.71l-1.46-2.05c-1.34-1.91-3-4.24-4.69-6.77-7.08-10.38-16-24.22-15.33-27.37.44-2.07,2.41-5.46,4.65-8.77h0c1-1.48,2.05-3,3-4.29,2.33-3.19,4.28-5.61,4.28-5.61Z"/><path class="cls-4" d="M47.74,101.53l-6.92,7.93a1.37,1.37,0,0,0-.34.82l-2.21,26a1.42,1.42,0,0,1-2.57.71l-1.46-2.05c0-.65,0-1.3,0-1.94.23-4.76,1.36-9.42,2-14.15s.64-9.68-1.19-14.07c-2.09-5-6.27-8.68-9.74-12.69a33.67,33.67,0,0,1-3.42-4.36c2.33-3.19,4.28-5.61,4.28-5.61Z"/><path class="cls-5" d="M18.87,92a2.76,2.76,0,0,0-.08.27,25.59,25.59,0,0,0-.39,8.19,38.09,38.09,0,0,0,2.11,8.87c2.39,6.54,6.09,12.51,9,18.81-7.08-10.38-16-24.22-15.33-27.37C14.66,98.73,16.63,95.34,18.87,92Z"/><path class="cls-3" d="M117.09,83.28a1.43,1.43,0,0,1-1.66,2.1L90.65,77.17a1.33,1.33,0,0,0-.88,0l-10,3.24L70.39,52.93s3.06-.85,7-1.76c1.53-.35,3.18-.7,4.82-1,4-.75,8-1.27,10.07-.84,3.18.65,12.53,14.49,19.29,25.12,1.38,2.16,2.65,4.18,3.74,5.94C116,81.45,116.57,82.44,117.09,83.28Z"/><path class="cls-4" d="M117.09,83.28a1.43,1.43,0,0,1-1.66,2.1L90.65,77.17a1.33,1.33,0,0,0-.88,0l-10,3.24L70.39,52.93s3.06-.85,7-1.76a33,33,0,0,1,4,6.15c2.17,4.28,3.48,9.16,6.86,12.58,2.47,2.5,5.79,3.95,9,5.33,4.38,1.88,8.8,3.76,13.49,4.56,1.49.25,3,.4,4.51.58C116,81.45,116.57,82.44,117.09,83.28Z"/><path class="cls-6" d="M111.55,74.43a.92.92,0,0,1-.24.13c-1,.44-2.12-.19-3-.86-4.22-3.27-7.21-7.81-10.49-12s-7.11-8.3-12.14-10.06a17.44,17.44,0,0,1-2.86-1,4.55,4.55,0,0,1-.65-.42c4-.75,8-1.27,10.07-.84C95.44,50,104.79,63.8,111.55,74.43Z"/><path class="cls-7" d="M23.65,4.55C11.44-1.26,6.44-.22,4.64.77c0,0-.53.34-.57.37-1.61,1.27-4.53,5.45-4,19,.67,17.06,15.26,57,38.38,81.38a19.77,19.77,0,0,0,22.83,4.36A178.61,178.61,0,0,0,78.39,94.56a19.78,19.78,0,0,0,5-22.71C70.05,41,39.08,11.88,23.65,4.55Z"/><path class="cls-3" d="M32.85,10.19A48.82,48.82,0,0,1,11.06,28a49.71,49.71,0,0,1-9.42,2.83A61.17,61.17,0,0,1,.07,20.11C0,18.86,0,17.69,0,16.59.06,5.85,2.61,2.29,4.07,1.14L4.63.76c1.81-1,6.81-2,19,3.79.85.4,1.75.87,2.68,1.4A74.55,74.55,0,0,1,32.85,10.19Z"/><path class="cls-4" d="M32.85,10.19A48.82,48.82,0,0,1,11.06,28a49.71,49.71,0,0,1-9.42,2.83A61.17,61.17,0,0,1,.07,20.11C0,18.86,0,17.69,0,16.59c.56,1.82,1.45,3.69,3.16,4.49s3.94.18,5.83-.49c3.35-1.19,6.8-2.43,9.38-4.87a30.33,30.33,0,0,0,4-5.26A18.39,18.39,0,0,1,26.33,6,74.55,74.55,0,0,1,32.85,10.19Z"/><path class="cls-8" d="M5.1,6.83a8.24,8.24,0,0,0,4.05,3.39,14.23,14.23,0,0,0,8.92.8,3.19,3.19,0,0,0,2.37-1.53,2.29,2.29,0,0,0,0-1.76,4.91,4.91,0,0,0-1-1.51,15.74,15.74,0,0,0-7.58-4.55,10.14,10.14,0,0,0-5-.27A2.58,2.58,0,0,0,5,2.39a4,4,0,0,0-.51,2.07A5,5,0,0,0,5.1,6.83Z"/><circle class="cls-9" cx="30.47" cy="40.53" r="13.23" transform="translate(-8.09 7.6) rotate(-12.57)"/><circle class="cls-10" cx="30.47" cy="40.53" r="10.81" transform="translate(-19.93 34.98) rotate(-46.78)"/><path class="cls-11" d="M30.23,41.74c4.75.67,9.49-4.75,8.83,0a8.67,8.67,0,0,1-17.18-2.42C22.54,34.58,25.49,41.07,30.23,41.74Z"/><path class="cls-12" d="M83.37,71.85a19.78,19.78,0,0,1-5,22.71,175.43,175.43,0,0,1-17.11,11.28,19.74,19.74,0,0,1-22.6-4.12l-.24-.23a135.17,135.17,0,0,1-18.29-25c-.72-1.24-1.42-2.49-2.1-3.73q3.16-1.09,6.26-2.37A113.58,113.58,0,0,0,65,41.79c1,1.28,2,2.59,3,3.91A143.14,143.14,0,0,1,80.07,64.9C81.25,67.2,82.36,69.52,83.37,71.85Z"/><path class="cls-13" d="M83.37,71.85a19.78,19.78,0,0,1-5,22.71,175.43,175.43,0,0,1-17.11,11.28,19.74,19.74,0,0,1-22.6-4.12,23.08,23.08,0,0,0,3,1.33,16.6,16.6,0,0,0,11.15.57A6.67,6.67,0,0,0,57,100.11c.7-1.81.16-3.83-.44-5.67a92.31,92.31,0,0,0-8.29-18.31,14.87,14.87,0,0,1-2-4.39,4.6,4.6,0,0,1,1.17-4.46,4.42,4.42,0,0,1,4.44-.54,9.93,9.93,0,0,1,3.67,2.87C58,72.55,60,76,62.41,79.06s5.6,5.8,9.44,6.53,8.37-1.24,9.46-5a12.41,12.41,0,0,0,.06-5.15c-.43-3.52-.87-7-1.3-10.55C81.25,67.2,82.36,69.52,83.37,71.85Z"/><path class="cls-14" d="M68,45.7A72,72,0,0,1,48.1,65.47a72.53,72.53,0,0,1-27.95,11c-.72-1.24-1.42-2.49-2.1-3.73q3.16-1.09,6.26-2.37A113.58,113.58,0,0,0,65,41.79C66,43.07,67,44.38,68,45.7Z"/><rect class="cls-9" x="62.69" y="64.98" width="3.45" height="54" transform="translate(-40.01 50.68) rotate(-33.42)"/></g></g></g></svg>