<svg xmlns="http://www.w3.org/2000/svg" xmlns:xlink="http://www.w3.org/1999/xlink" viewBox="0 0 126.8 126.8"><defs><style>.cls-1{isolation:isolate;}.cls-2,.cls-3,.cls-5,.cls-9{fill-rule:evenodd;}.cls-2{mix-blend-mode:screen;fill:url(#Áåçûìÿííûé_ãðàäèåíò_386);}.cls-3{fill:url(#Áåçûìÿííûé_ãðàäèåíò_366);}.cls-4{opacity:0.5;}.cls-4,.cls-7{mix-blend-mode:multiply;}.cls-5{fill:#bcadb5;}.cls-6{opacity:0.63;}.cls-6,.cls-8{mix-blend-mode:soft-light;}.cls-7{opacity:0.47;}.cls-9{fill:#bcadfb;}</style><radialGradient id="Áåçûìÿííûé_ãðàäèåíò_386" cx="63.4" cy="63.4" r="63.4" gradientUnits="userSpaceOnUse"><stop offset="0.81" stop-color="#4e89c0"/><stop offset="0.83" stop-color="#40709d"/><stop offset="0.86" stop-color="#2c4e6d"/><stop offset="0.89" stop-color="#1c3246"/><stop offset="0.92" stop-color="#101c27"/><stop offset="0.95" stop-color="#070d12"/><stop offset="0.98" stop-color="#020304"/><stop offset="1"/></radialGradient><radialGradient id="Áåçûìÿííûé_ãðàäèåíò_366" cx="50.85" cy="44.16" r="80.87" gradientUnits="userSpaceOnUse"><stop offset="0" stop-color="#93c3fc"/><stop offset="0.84" stop-color="#422583"/><stop offset="0.95" stop-color="#413d75"/><stop offset="1" stop-color="#5d78cc"/></radialGradient></defs><g class="cls-1"><g id="Capa_2" data-name="Capa 2"><g id="OBJECTS"><path class="cls-2" d="M126.8,63.41A63.43,63.43,0,0,1,36.44,120.8c-1.61-.76-3.19-1.59-4.73-2.47a63.64,63.64,0,0,1-16.27-13.47,62.2,62.2,0,0,1-4.7-6.13,64,64,0,0,1-5.13-9.21,63.6,63.6,0,0,1,0-52.28,61.57,61.57,0,0,1,4-7.38A63.29,63.29,0,0,1,21.2,16.1h0A63.33,63.33,0,0,1,97.12,9.71h0c1.11.7,2.2,1.43,3.25,2.19.89.64,1.75,1.3,2.6,2A63.39,63.39,0,0,1,126.8,63.41Z"/><path class="cls-3" d="M122.22,63.41a58.84,58.84,0,0,1-83.83,53.24q-2.25-1.05-4.39-2.3a58.6,58.6,0,0,1-15.09-12.49,57.51,57.51,0,0,1-4.36-5.69,58.93,58.93,0,0,1-4.74-57,56.45,56.45,0,0,1,3.68-6.86A58.55,58.55,0,0,1,24.25,19.52h0a58.82,58.82,0,0,1,70.43-5.92h0c1,.65,2,1.33,3,2,.82.59,1.62,1.2,2.41,1.83a58.77,58.77,0,0,1,22.1,45.95Z"/><g class="cls-4"><path class="cls-5" d="M121.86,56.89a7.86,7.86,0,0,0-.53,1.18,10.18,10.18,0,0,1-.83,1.69,20.27,20.27,0,0,0-.92,2.14c-.68,1.58-1.19,3.31-1.76,4.93-.63,1.82-1.23,3.63-2,5.39-.35.8-.86,1.51-1.22,2.3s-.71,1.54-1.14,2.29c-1.07,1.84-2,3.72-3.17,5.53a105.89,105.89,0,0,1-6.88,9.17,49.66,49.66,0,0,1-4,4.21c-1.56,1.54-2.92,3.26-4.53,4.76a30.73,30.73,0,0,1-4,3.32c-.81.53-1.59,1.13-2.4,1.66a33.54,33.54,0,0,1-3.37,1.6,90,90,0,0,1-11.5,4.13c-3.8,1.21-7.46,2.87-11.34,3.84-.8.2-1.6.28-2.41.44s-1.71.42-2.6.52c-1.78.2-3.5.79-5.3.89-1.26.06-2.43-.18-3.66-.24a37,37,0,0,0-4.71.21,26.07,26.07,0,0,1-5.22-.2q-2.25-1.05-4.39-2.3l.17.06c1,.32,2,.91,3,1.15s2.24.44,3.38.63a13.33,13.33,0,0,0,4.5,0c.79-.13,1.6-.22,2.39-.39s1.74.05,2.61-.15a19.63,19.63,0,0,1,3.76-.11c2.11-.06,4.19-.84,6.23-1.26,2.27-.46,4.42-1.28,6.73-1.56a18.44,18.44,0,0,0,3.6-1,8.39,8.39,0,0,0,2.65-1.6,25.85,25.85,0,0,1,5.44-3.43,31.84,31.84,0,0,1,6.21-1.82,11,11,0,0,0,5-2.37c.59-.52,1.15-1.08,1.73-1.61a24.83,24.83,0,0,0,2.12-2c.73-.83,1.56-1.59,2.28-2.42s1.44-2,2.23-2.89c1.26-1.48,3.17-2.25,4.41-3.75.25-.32.43-.7.7-1s.58-.48.75-.88.72-1.64.44-2.19c-.55-1.12-3.49,1.75-4,2.2a12,12,0,0,1-2.2,1.89,14.65,14.65,0,0,1-1.61.86,18,18,0,0,1-3,.63c-2.75.59-5.54.91-8.31,1.34C81.47,93.31,77.68,94.1,74,95c-3.46.84-6.87,1.81-10.33,2.63-1.83.44-3.66.9-5.51,1.3-2.25.51-4.45,1.2-6.71,1.63a70,70,0,0,1-11.24,1.65c-3,.07-5.93.23-8.9.23-4,0-8.32.41-12.26-.54l-.14,0a57.51,57.51,0,0,1-4.36-5.69,19.43,19.43,0,0,0,4.5,1.41,7.8,7.8,0,0,1,3.26,1.14,6.9,6.9,0,0,0,1.94,1.1,11.88,11.88,0,0,0,7.41,0c1-.28,1.91-.58,2.86-.89.7-.23,1.34-.65,2-.84,2-.52,4-.89,6-1.35.95-.21,1.95-.39,2.88-.68s2-.86,3.05-1.28a26.8,26.8,0,0,1,5.82-2,14.12,14.12,0,0,0,4-1c.39-.19,1-.46.91-1s-.91-.46-1.37-.39c-1.34.24-2.7.36-4,.71a36.24,36.24,0,0,1-7.19,1.11,94.42,94.42,0,0,1-11,.27c-2.91-.15-5.83-.41-8.74-.38a25.38,25.38,0,0,1-8.22-1.1,51.64,51.64,0,0,1-8.88-3.44,59,59,0,0,1,0-48.49c-.39,1.07-.72,2.17-1.17,3.21a16,16,0,0,0-1.42,6.36,20.18,20.18,0,0,1,0,2.58,6.15,6.15,0,0,0,.08,2.89,19.31,19.31,0,0,0,.65,2.37,2.3,2.3,0,0,0,.47.64,6.53,6.53,0,0,1,.46.77,6.48,6.48,0,0,0,2,2.27,9.55,9.55,0,0,0,1.71.65,2.13,2.13,0,0,0,1.66,0A6.45,6.45,0,0,1,16,60.46a4.44,4.44,0,0,1,1,.21c.42.07.83,0,1.25.12a23.5,23.5,0,0,0,5.19.77c1.4,0,2.76.22,4.17.22a40.62,40.62,0,0,0,5.06-.16c1.13-.15,2.35-.44,3.48-.51s2.35,0,3.51,0a24.19,24.19,0,0,0,11.67-3.06,25.42,25.42,0,0,1,5.94-2.55c2.69-.77,5.43-1.53,8.17-2.05a31.91,31.91,0,0,0,7.39-2.39,21.77,21.77,0,0,0,3-1.74c.86-.59,1.8-1,2.64-1.66a57.83,57.83,0,0,0,6.68-6c1.21-1.21,2.44-2.43,3.7-3.58a7.47,7.47,0,0,1,3.49-1.7c2.14-.51,3.34-2.92,4.49-4.64a14.26,14.26,0,0,0,2.73-7.34,15.11,15.11,0,0,0-.25-3.29,5.71,5.71,0,0,0-.41-1.41,4.88,4.88,0,0,1-.42-.86c-.06-.26-.07-.53-.12-.76s-.18-.47-.23-.66a6.31,6.31,0,0,1-.33-1.75v0c.82.59,1.62,1.2,2.41,1.83a4,4,0,0,1,0,.69c0,.28-.14.51-.2.79A4.78,4.78,0,0,0,99.69,20a5.79,5.79,0,0,0,.1,1.33c.29,1.09,1,2.11,1,3.26A9.09,9.09,0,0,1,100,28c-.42,1-.87,2-1.37,3a11.17,11.17,0,0,1-1.15,1.87,12.43,12.43,0,0,0-1.2,1.7A13.26,13.26,0,0,0,95.59,36a6.18,6.18,0,0,1-1.68,2.06c-1.42,1.36-3.2,2.47-4.72,3.79a22.31,22.31,0,0,0-3.38,3.49c-.43.6-2.65,2.33-2,3.24.27.4,1.1.27,1.49.27a6.21,6.21,0,0,0,2.51-.56,53.46,53.46,0,0,1,6.57-2.82,23.15,23.15,0,0,0,3.08-.9,28.48,28.48,0,0,0,3.38-1.85,8.7,8.7,0,0,0,2-2c.37-.43.88-.68,1.28-1.07a13.34,13.34,0,0,1,1.28-1.42,16.24,16.24,0,0,0,3.3-3.57,12.68,12.68,0,0,0,1.51-4.1,5.73,5.73,0,0,0,.24-1.09c0-.47,0-.95,0-1.42V28A58.46,58.46,0,0,1,121.86,56.89Z"/><path class="cls-5" d="M95.05,18.56c-.23,1.33-.35,2.65-.62,4a18.86,18.86,0,0,1-.86,4c-.91,2.12-1.19,4.47-2.63,6.34a13.43,13.43,0,0,1-1.86,2.32,6.56,6.56,0,0,1-.94.51c-.3.2-.62.5-.91.72a40.8,40.8,0,0,0-4.54,3.63,31.06,31.06,0,0,1-4.58,4c-.52.33-1.07.58-1.6.87a12,12,0,0,1-1.3.74,5.9,5.9,0,0,0-1.54.73,6.33,6.33,0,0,1-1.36.77c-.83.33-1.64.72-2.47,1-.38.16-.77.24-1.16.38a10.7,10.7,0,0,1-3.32.49c-.45-.2-.07-.21.29-.38a1.66,1.66,0,0,0,.59-.45,7.21,7.21,0,0,1,1-.91c.62-.45,1.44-.68,2.11-1.09.86-.53,1.71-1.18,2.54-1.76a13.68,13.68,0,0,0,1.8-1.85c.63-.66,1.38-1.25,2.06-1.86s1.48-1.53,2.29-2.22a8.37,8.37,0,0,0,2-2.54c.23-.42.59-.72.82-1.14a9.34,9.34,0,0,0,.66-1.2c.2-.49.46-1,.68-1.43a8.86,8.86,0,0,0,.35-1.79c.37-1.73.71-3.48,1-5.21a29.18,29.18,0,0,0,.33-4.48c0-1.42.45-2.8.46-4.24A3.38,3.38,0,0,0,84.18,15c-.3-.67-.64-1.26-.88-2a11.46,11.46,0,0,0-3.93-5.43c-.28-.19-1.15-.72-2-1.35a58.37,58.37,0,0,1,17.34,7.33h0A11.51,11.51,0,0,1,95.05,18.56Z"/><path class="cls-5" d="M78,18.66a20.37,20.37,0,0,1-.78,2,15.87,15.87,0,0,0-.54,2.46c-.17,1.26-.06,2.52-.21,3.79a21.47,21.47,0,0,1-2.13,6.89,14.05,14.05,0,0,1-4.82,5.25A45.18,45.18,0,0,1,63,42.55c-1.27.57-2.61.82-3.91,1.31-1.09.41-2.16.87-3.24,1.3s-2.06,1.15-3.13,1.5c-.67.21-1.33.44-2,.68-1.15.41-2.18,1-3.3,1.49a28.72,28.72,0,0,1-4.88,1.6,13.57,13.57,0,0,1-4.92-.07,39,39,0,0,1-4.16-.61,34.39,34.39,0,0,0-7.79-.43c-1.95,0-4.2.19-5.92-.87a3.33,3.33,0,0,1-1.32-1.14,8.71,8.71,0,0,1-.53-2.14c-.3-1.43-1.66-2.4-2.58-3.45a8.83,8.83,0,0,1-1.91-4.86,13.08,13.08,0,0,1,.1-4.58A58.55,58.55,0,0,1,24.25,19.52c-1,1.87-1.73,3.85-2.59,5.78-1.31,2.89-2.46,6-2.35,9.27a7.91,7.91,0,0,0,.82,3.78,6.31,6.31,0,0,0,2.21,2,27,27,0,0,0,4.19,2.28l4.95,1.87a12.86,12.86,0,0,0,2.92.91,27.34,27.34,0,0,0,3.84,0c4.52-.12,8.7-2.24,13-3.52,1.36-.42,2.78-.61,4.13-1.06a16.22,16.22,0,0,0,2.36-1.07,51.5,51.5,0,0,0,5.73-2.93,24,24,0,0,0,4.76-4.34,11.38,11.38,0,0,0,2-4.08,39.14,39.14,0,0,0,1.69-9.21,25.72,25.72,0,0,1,.91-3.88,2.52,2.52,0,0,0-.62-2.51A12.58,12.58,0,0,0,67,10.36a13.41,13.41,0,0,0-3.25-.61H60.39c-1.07,0-2.11-.23-3.17-.23-1.25,0-2.42.35-3.66.45a35.88,35.88,0,0,0-3.87.48,39.08,39.08,0,0,0-4.45,1.32,25.17,25.17,0,0,0-8.12,4.1c-.61.46-1.26.84-1.9,1.25a3.81,3.81,0,0,0-1.1,1.35,11.39,11.39,0,0,0-1.56,3.59,10.67,10.67,0,0,0-.2,2.82A22,22,0,0,1,32,28.68c-.3,1.77-2,4.39-.13,5.8a2.38,2.38,0,0,0,1.81.42,21,21,0,0,0,2.82-.65,55.89,55.89,0,0,1,8-1.93,21.1,21.1,0,0,0,2.38-.25c.51-.14,1-.31,1.49-.4a7.7,7.7,0,0,0,3.28-1.75c.43-.35.77-.79,1.2-1.14.59-.49,1.3-.81,1.86-1.33.81-.74,1.58-1.54,2.33-2.34a51.8,51.8,0,0,0,4-5.46,9.18,9.18,0,0,0,2-3.78c.18-1.09-1.16-1.67-2-2a5.57,5.57,0,0,0-2.8-.39A18.14,18.14,0,0,0,54.43,15c-2.7,1.19-5.72,1.48-8.08,3.39-.85.68-.81,1.34-1.08,2.29A8.1,8.1,0,0,1,44.6,22a1.6,1.6,0,0,0-.21,1.53c.17.67.34,1.61,1.13,1.92a3.08,3.08,0,0,0,2.37-.34A5.88,5.88,0,0,1,49,24.45c.25-.09.87-.38,1.11-.29.43.16.11.43-.07.66a4.16,4.16,0,0,0-.39.67,1.88,1.88,0,0,1-.26.68,7.48,7.48,0,0,1-3,1.52,7,7,0,0,1-2.38.65c-1.24,0-.74-.91-.92-1.8-.24-1.15-1.57-1.59-1.71-2.78A7,7,0,0,1,42,20.2a8.17,8.17,0,0,1,.77-1.26,5.71,5.71,0,0,1,1.83-1.58c2.06-1.36,4.63-2,7-2.8s4.88-.92,7.19-1.75a29.68,29.68,0,0,1,4.85-1,3,3,0,0,1,3.44,1.68c.65,1.45,1.43,3,1,4.62a27.15,27.15,0,0,1-2.51,6.38,15.12,15.12,0,0,1-5.75,6.14,48.13,48.13,0,0,1-5.71,2.21,23.1,23.1,0,0,1-4.49,1.26c-2.4.36-4.6,1.78-6.94,2.37a96.1,96.1,0,0,1-9.79,1.9,11.49,11.49,0,0,1-3.51.1,5.09,5.09,0,0,1-1.59-.26l-1.13-.49c-1.28-.55-2.51-1.47-2.37-3s.67-2.93.95-4.37c.19-.95.2-1.89.44-2.85.17-.72.34-1.47.53-2.18a6.31,6.31,0,0,1,.76-1.79c.68-.95,1.2-2.06,1.93-3a8.61,8.61,0,0,0,.83-1.08,4.34,4.34,0,0,1,.63-1c.28-.31.47-.7.76-1a12.72,12.72,0,0,1,1.85-1.41,26.66,26.66,0,0,1,4.52-2.66c1.55-.67,3.17-1.12,4.76-1.66,1.43-.49,2.75-1.27,4.17-1.81a21.82,21.82,0,0,1,5-1.21A81.43,81.43,0,0,1,61.6,8c4.29,0,9.05-1.61,13.12.44A4.51,4.51,0,0,1,77,10.84a13.51,13.51,0,0,1,1,5.44A15.74,15.74,0,0,1,78,18.66Z"/></g><g class="cls-6"><path class="cls-5" d="M11.54,37.13c.29.8.69,1.49.94,2.3a7.36,7.36,0,0,0,.7,1.64c.32.52.51,1.11.82,1.65a8,8,0,0,1,.8,1.88c.12.48.14,1,.28,1.48L15.59,48a4.17,4.17,0,0,0,.54,1.1,4.49,4.49,0,0,0,.85,1.2c1.16.82,2.83.47,4.16.32s2.46-.14,3.68-.3a10.36,10.36,0,0,1,1.93,0,14.2,14.2,0,0,1,1.84.21c.52.1,1,.12,1.57.2.76.13,1.5.32,2.27.38s1.73.2,2.58.21c1.22,0,2.46-.1,3.68,0,1.06.11,2.13.29,3.2.3A12.24,12.24,0,0,0,46,50.68c2.15-.79,4.38-1.43,6.55-2.22a15.19,15.19,0,0,0,2.25-1.2c.67-.39,1.38-.65,2-1.07a11.7,11.7,0,0,1,3.93-1.55c1.36-.3,2.68-.8,4-1.12.89-.21,1.77-.67,2.68-.79-.17.71-1.72,1-2.27,1.17-1.29.46-2.68.71-3.91,1.27a7.82,7.82,0,0,0-2,1.65,14.94,14.94,0,0,1-1.71,1.57,5.77,5.77,0,0,1-2.2.91c-1.74.35-3.43,1-5.17,1.36a24.52,24.52,0,0,0-5,1.52c-.44.2-1.74.71-1.79,1.35s.58.33.94.33a6.87,6.87,0,0,1,2.52.12,9.13,9.13,0,0,0,1.63.62,7.36,7.36,0,0,0,3.94-.41,29.44,29.44,0,0,1,5.23-1.31c1.22-.23,2.39-.58,3.6-.84A24.71,24.71,0,0,1,64,51.71c1.37-.13,2.74-.29,4.1-.52a12,12,0,0,0,3.27-.77,14.09,14.09,0,0,0,2.53-1.23c.19-.15,1.29-1.11,1.55-.89.54.46-2.51,2.2-2.72,2.34a16.45,16.45,0,0,1-3.12,1.54,30.1,30.1,0,0,1-4.25,1.18c-1.64.41-3.29.75-4.93,1.16s-3.34.63-5,1.18a17.19,17.19,0,0,0-2.41.94c-.71.36-1.46.61-2.16,1a29.31,29.31,0,0,1-4.57,2.48,20,20,0,0,1-4.4,1,32.17,32.17,0,0,1-5.88-.32,47.73,47.73,0,0,0-6-.33c-1.86,0-3.7.42-5.56.5a8.37,8.37,0,0,1-3.46-.82,20.94,20.94,0,0,1-3.66-1.85,6,6,0,0,0-3.45-.94,4.67,4.67,0,0,0-.76.17,1.29,1.29,0,0,1-.83-.22,5.61,5.61,0,0,1-2.71-2.49,13.18,13.18,0,0,1-1-3.81,17,17,0,0,1,0-2.26c0-1-.18-2-.17-3a15.87,15.87,0,0,1,.32-4.82,15,15,0,0,1,2.32-4c.5-.7.91-1.44,1.43-2.11.18.36-.26,1.06-.35,1.43C12,36.68,11.82,37.67,11.54,37.13Z"/><path class="cls-5" d="M86.3,45.82c-.47.61-1.32,1.39-1.45,2.18s.74.66,1.3.58a15.36,15.36,0,0,0,3.63-.78c.69-.28,1.32-.67,2-1s1.17-.32,1.73-.56c1.34-.57,2.79-.86,4.11-1.48a12,12,0,0,0,3.14-2.29,8.37,8.37,0,0,0,1.73-1.93,17.55,17.55,0,0,0,1-1.8,10.08,10.08,0,0,0,.65-2.65,6,6,0,0,0,0-1.46c-.15-1.11-1.27-1.21-2.21-1.08a5.84,5.84,0,0,0-3,1.58,20.54,20.54,0,0,1-2.45,2.13c-1,.63-2,1.27-3,2A8.83,8.83,0,0,0,92,40.42c-.37.38-.74.79-1.15,1.15a10.33,10.33,0,0,1-1.34.93c-.38.24-.72.57-1.11.77a5.37,5.37,0,0,0-1.38,1,3.51,3.51,0,0,0-.75.88C86,45.72,86.05,46.45,86.3,45.82Z"/><path class="cls-5" d="M99.74,29.76a1.54,1.54,0,0,1,.91-1.16c.36-.18.62-.23.86.16a2.73,2.73,0,0,1-.17,2.44c-.22.54-1.09,1.08-1.48.4-.27-.46-.26-1.81.37-2Z"/><path class="cls-5" d="M50.56,52.55c.29-.56.37-.63.89-.83a3.75,3.75,0,0,1,1.08-.33c.47,0,1-.29,1.44-.12.72.26.58.89.1,1.34a1.51,1.51,0,0,1-.72.43,5,5,0,0,1-1.16.16,2.92,2.92,0,0,1-1.79-.36.26.26,0,0,1,.16-.29Z"/><path class="cls-5" d="M23,94a18.22,18.22,0,0,0,5.86,1,61.6,61.6,0,0,0,7.06-.22c1.56-.15,3.11-.11,4.67-.33.75-.11,1.47-.07,2.22-.11.44,0,.89-.27,1.32-.14,1.63.5-1.28,1.44-1.61,1.6A22.12,22.12,0,0,1,38.77,97c-.48.14-1,.28-1.45.44a10.94,10.94,0,0,1-1.35.5c-1.92.42-3.86.61-5.78,1a5.73,5.73,0,0,1-2.22.13,8.38,8.38,0,0,1-2.17-.95,16.26,16.26,0,0,1-2.46-1.34,8.24,8.24,0,0,1-1.12-.91,1.61,1.61,0,0,1-.31-.66c-.2-.5-.19-.7.24-1.06a1.2,1.2,0,0,1,1.16-.26S23.33,94,23,94Z"/><path class="cls-5" d="M72.91,113.37a9.59,9.59,0,0,0-2.76,1.26c-.37.26-.82.7-.28,1a5,5,0,0,0,2.73.14c1.37-.13,2.72-.38,4.08-.56.93-.12,1.84-.22,2.75-.4a30,30,0,0,0,3.51-1,11.43,11.43,0,0,0,2.43-1.13,22,22,0,0,0,2.32-1.52c.94-.79,2.18-1.41,2.55-2.67.3-1.06-2-.68-2.41-.62a25.16,25.16,0,0,0-5,1.26c-.69.25-1.43.43-2.11.73-.9.4-1.77.88-2.7,1.24-.44.17-.82.45-1.27.61s-.78.27-1.17.43-.87.37-1.31.52C73.29,113,72.28,113.29,72.91,113.37Z"/><path class="cls-5" d="M91.05,105.72a2.83,2.83,0,0,1,1-1.24,2.17,2.17,0,0,1,1.11-.73c.35,0,.9.36.76.76a3.13,3.13,0,0,1-.48.62,1.84,1.84,0,0,1-.62.59,2.27,2.27,0,0,1-1.62.11Z"/><path class="cls-5" d="M97,92a7.94,7.94,0,0,1-1.25.59,8.35,8.35,0,0,1-1,.17c-1,.16-2,.23-3,.33-1.29.13-2.57.31-3.87.41a29.91,29.91,0,0,0-6.86,1.07,30.7,30.7,0,0,0-5.31,2.26,28.39,28.39,0,0,0-4.27,2.73,13.94,13.94,0,0,0-1.24,1.19,3.53,3.53,0,0,0-.69.91.88.88,0,0,0,.45,1.21,6,6,0,0,0,2.47.63c1.25.17,2.5.33,3.74.52a36.15,36.15,0,0,0,3.89.43,9.8,9.8,0,0,0,4-.46,17.58,17.58,0,0,0,2.62-1.17c.82-.47,1.63-.94,2.41-1.47a12.29,12.29,0,0,0,1.63-1.15c.22-.21.44-.38.66-.57s.6-.67,1-1a13.5,13.5,0,0,0,2.11-2.23c.48-.63,1.06-1.17,1.53-1.8a3.81,3.81,0,0,0,.74-1A7,7,0,0,0,97,92Z"/><path class="cls-5" d="M99.69,90.09a3.15,3.15,0,0,1,.84-1,3.33,3.33,0,0,1,1-.84.57.57,0,0,1,.57.09.78.78,0,0,1,.17.58,1.64,1.64,0,0,1-.91,1,1.76,1.76,0,0,1-1.26,0Z"/><path class="cls-5" d="M117.06,73.8a4.65,4.65,0,0,0-.67.66c-.31.44-.56.9-.91,1.32a9.7,9.7,0,0,0-.94,1.42c-.36.62-.78,1.2-1.11,1.84-.72,1.37-1.3,2.81-1.94,4.21-.32.71-.61,1.43-.92,2.14a9.14,9.14,0,0,0-.78,2.35c-.09.59-.24,1.59.55,1.7,1,.13,2-.71,2.68-1.27a21.51,21.51,0,0,0,4.75-5.36c1.28-2,2.51-4.42,2.19-6.87A13.34,13.34,0,0,1,120,72.6a32.32,32.32,0,0,0,.53-3.53,10.91,10.91,0,0,0,0-2.49,1.09,1.09,0,0,0-.36-.7c-.22-.13-.37,0-.57.15a4.34,4.34,0,0,0-1.38,1.65c-.38.8-.41,1.67-.73,2.5a8,8,0,0,1-.32.86c-.12.23-.27.45-.39.68a5.32,5.32,0,0,0-.41,1.3c-.07.27-.12.53-.19.81s-.15.44-.2.66S116,74.88,117.06,73.8Z"/><path class="cls-5" d="M108,88.34c-.19.19-1.38,1.34-.92,1.64.12.08.48,0,.59-.06a2.37,2.37,0,0,0,.66-.46.82.82,0,0,0,.33-.79c0-.52-.33-.5-.77-.33Z"/><path class="cls-5" d="M110.83,91.07c.26-.34.33-.48.69-.62a4.3,4.3,0,0,1,.82-.37c.38-.06.55.08.59.46,0,.65-.75,1.49-1.11,2a9.33,9.33,0,0,1-1.52,1.62c-.82.64-1.42-.39-1.11-1.16a6.32,6.32,0,0,1,.55-1.43c.45-.66,1.13-.65,1.86-.79Z"/><path class="cls-5" d="M47.44,20.25a2.8,2.8,0,0,0-1.39,1.81c-.11.37-.25,1.16.06,1.48.53.55,2-.05,2.48-.25a23.09,23.09,0,0,1,3.08-1.2c2-.46,4.16-.65,5.87-1.87A10.49,10.49,0,0,0,60,17.61a4,4,0,0,0,1.06-1.94c.11-1.64-2.17-1.74-3.25-1.49a32.14,32.14,0,0,0-6.67,2.25,10.67,10.67,0,0,0-3.7,2.5,4.3,4.3,0,0,0-.53,1C46.8,20.22,46.56,21,47.44,20.25Z"/><path class="cls-5" d="M51.7,24.84c-.26-.61-.4-.66,0-1A7.69,7.69,0,0,1,53,23.06a3.47,3.47,0,0,1,1.65-.37c1.14.14.62,1.43.27,2a2.3,2.3,0,0,1-.76,1,1.32,1.32,0,0,1-1.22.21,2.7,2.7,0,0,1-.92-.57c-.19-.18-.64-.49-.59-.8l.14,0Z"/><path class="cls-5" d="M43.67,38.94c0-.54,0-.66.32-1a10.84,10.84,0,0,1,1.84-1.29,18.46,18.46,0,0,1,4.34-2,25.86,25.86,0,0,1,4.16-1c1.05-.17,2.05-.52,3.11-.66,1.63-.23,3.64-1,4.94.53,1,1.25-.89,2.91-1.8,3.59A6.84,6.84,0,0,1,58,38.28c-1.13.28-2.25.63-3.38.9a49.36,49.36,0,0,0-6.06,2.31,3.44,3.44,0,0,1-3.61-.34C44.21,40.69,43.06,39.51,43.67,38.94Z"/><path class="cls-5" d="M62.69,29.59c-.28.51-.95,1.43-.08,1.74.5.18.85-.22,1.23-.5A4.39,4.39,0,0,0,65,29.76a.77.77,0,0,0-.38-1.2c-1-.46-1.51.53-2.1,1.2Z"/><path class="cls-5" d="M78.75,19.59A4.16,4.16,0,0,0,77.45,23c.14,1.31,1,1.59,2.13,1a6,6,0,0,0,1-.48,4.74,4.74,0,0,0,.72-1,3.61,3.61,0,0,0,.79-2.3,10,10,0,0,0-.13-2.51,2.21,2.21,0,0,0-.69-1.31c-.46-.31-.81.1-1.15.37a2.94,2.94,0,0,0-.82.79,9.16,9.16,0,0,0-.82,2.17Z"/><path class="cls-5" d="M60.23,47.79c0-.62,0-.66.47-1a10.61,10.61,0,0,1,1-.76,6,6,0,0,1,2.26-.7,3.23,3.23,0,0,1,1.81.3.88.88,0,0,1,.33,1c-.12.59-.71,1-1.15,1.32a4.63,4.63,0,0,1-1.6.94,4,4,0,0,1-2,.08c-.42-.11-1.29-.28-1.27-.86Z"/><path class="cls-5" d="M68.26,42.05a4.39,4.39,0,0,1,1.27-1.44,3.83,3.83,0,0,1,1.28-.67.72.72,0,0,1,.56.56c0,.28-.24.67-.4.9a3.34,3.34,0,0,1-1.39,1.18,1.14,1.14,0,0,1-.83.1c-.29-.09-.41-.37-.65-.46Z"/><path class="cls-5" d="M36.29,17.79a5.69,5.69,0,0,0-1.72,2.79.9.9,0,0,0,.23,1c.43.38,1,.17,1.47,0a17.49,17.49,0,0,0,3.95-2.12c1.12-.73,2.61-.94,3.46-2,.47-.58,1-1.22.51-2a2.61,2.61,0,0,0-2.07-.95,6.09,6.09,0,0,0-2.88.78A10,10,0,0,0,36.29,17.79Z"/><path class="cls-5" d="M31.7,14.35A12,12,0,0,0,36,12.9c.27-.17.54-.24.81-.39s.3-.32.49-.5c-.13-.63-1.83-.25-2.22-.09s-1.05.53-1.56.78a5.93,5.93,0,0,0-.78.43,5.64,5.64,0,0,0-1.15,1.54Z"/></g><g class="cls-7"><path class="cls-5" d="M79.9,48.88a12.43,12.43,0,0,1-1.38.77c-.77.32-1.48.76-2.26,1.1s-1.89.65-2.82,1a19.33,19.33,0,0,0-3.79,1.72,7.82,7.82,0,0,0-3,3.1A2.77,2.77,0,0,0,66.59,59a2.69,2.69,0,0,0,1.12,1.12,3.57,3.57,0,0,0,2.37-.06,12.63,12.63,0,0,0,2.91-1c.49-.25,1-.55,1.46-.81s1.09-.47,1.63-.7.85-.32,1.28-.46a4.84,4.84,0,0,0,1.47-.78A7.64,7.64,0,0,0,81,53.91a5.67,5.67,0,0,0,.79-3.8A1.37,1.37,0,0,0,79.9,48.88Z"/><path class="cls-5" d="M65,56.43c-.3-.41-.5-.37-1-.34a7.11,7.11,0,0,0-1.12.2c-1.81.38-3.67.57-5.47,1a11.76,11.76,0,0,0-2.88,1c-.92.49-1.86.93-2.75,1.46a21.45,21.45,0,0,1-6.61,2.71c-1.46.3-2.93.6-4.39.87-.89.17-1.78.3-2.66.49s-1.76.44-2.64.63a35.37,35.37,0,0,0-4.66,1.31,12.1,12.1,0,0,0-4.34,2.3,3.79,3.79,0,0,0-1.41,2.4,3.51,3.51,0,0,0,.6,1.8c1.22,2,3.54,3.2,5.56,4.22,2.81,1.43,6.14,1.61,9.21,2a38,38,0,0,0,12-.61c1.77-.36,3.56-.71,5.33-1,2.15-.4,4.32-.69,6.45-1.14,1.76-.37,3.54-.78,5.26-1.28a22.48,22.48,0,0,0,2.79-1,21.22,21.22,0,0,0,2.29-1.27A16.89,16.89,0,0,0,76.42,71a8.16,8.16,0,0,0,1.28-1.41A21,21,0,0,0,79.24,67a18.18,18.18,0,0,1,1.09-1.79c.41-.56.89-1.09,1.34-1.62.93-1.12,2.08-2.09,3-3.26A4.87,4.87,0,0,0,85.69,58c0-.59,0-1.19-.56-1.46a3.63,3.63,0,0,0-1.88-.19,11.19,11.19,0,0,0-1.86.52,18,18,0,0,0-3.1,1.23c-2.5,1.34-5,3-7.77,3.6a5.65,5.65,0,0,1-3.43-.08,11.62,11.62,0,0,1-2.37-1.24c-1-.71-.68-1.53-.25-2.49C64.65,57.45,65.18,56.53,65,56.43Z"/><path class="cls-5" d="M118.92,43.42a22.38,22.38,0,0,1-.24,3l-.21,1.35c-.1.6-.38,1.14-.53,1.73a16.14,16.14,0,0,1-1.21,3c-.46,1-.75,2.07-1.2,3.09-1.25,2.88-2,5.94-3.22,8.83-.61,1.43-1.16,2.91-1.82,4.32s-1.32,2.47-1.95,3.71c-.24.47-.88,1.33-.39,1.82s1.1,0,1.51-.19c1.65-.89,2.35-3,3.36-4.43.51-.74,1.3-1.3,1.84-2a17.61,17.61,0,0,0,2-3.18c1-2.24,1.54-4.56,2.37-6.84a16,16,0,0,0,.79-5.7,7.72,7.72,0,0,0-.16-2.45A47.84,47.84,0,0,1,118.92,43.42Z"/><path class="cls-5" d="M115.86,46.26c-.69.67-2.11,2.31-1.44,3.41.37.6,1.46.34,1.84-.18a3,3,0,0,0,.26-1.7,2.86,2.86,0,0,0,0-1c-.1-.23-.36-.28-.42-.56Z"/><path class="cls-5" d="M102.53,78A22.66,22.66,0,0,0,100,79.71a16.37,16.37,0,0,1-2.46,1.36,25.66,25.66,0,0,1-6.84,2.14,63.67,63.67,0,0,0-9.08,1.9c-2.23.74-4.45,1.52-6.66,2.31s-4.47,1.27-6.33,2.52c-.45.3-1.07.78-.9,1.4.26,1,2.28,1,3,1,2.18.09,4.38,0,6.56,0,1,0,2.09,0,3.13.05a19.55,19.55,0,0,0,3.9,0,22.46,22.46,0,0,0,4.91-.62c3-1,6-2.11,9-3.28,2.66-1.05,6.52-3.22,6.29-6.54A6.13,6.13,0,0,0,102.53,78Z"/><path class="cls-5" d="M106.9,80.58c-.44-.92-.56-1.15-.08-2a2.83,2.83,0,0,1,1.89-1.31c1.35,0,1.39,1.55,1.09,2.49s-.62,2.07-1.59,2.13a1.06,1.06,0,0,1-.86-.27c-.32-.24-.77-1-1.11-1Z"/><path class="cls-5" d="M11.59,83.2a4.09,4.09,0,0,0,.11,3,6.14,6.14,0,0,0,3.65,2.75,11,11,0,0,0,2.74.42c1,0,2.06.21,3.09.22a34.12,34.12,0,0,1,4.62.37c.85.13,1.67.37,2.52.48a16.33,16.33,0,0,1,2,.32c1.39.32,2.76.33,4.15.52a16.11,16.11,0,0,0,4.44-.1c1.27-.19,2.62-.36,3.23-1.6.48-1,.13-1.49-.72-2.15a10.23,10.23,0,0,0-2.9-1.13c-1.36-.44-2.7-.86-4.09-1.19-1.94-.47-3.8-1.17-5.72-1.73-3.94-1.16-7.71-2.78-11.83-3.15a10.23,10.23,0,0,0-5.29.59,2.35,2.35,0,0,0-1.09,1.27C10.11,82.88,10.51,83.37,11.59,83.2Z"/><path class="cls-5" d="M11.37,76c.23.72.19.94.85,1.15a2.44,2.44,0,0,0,1.36.13c.56-.17,1.23-.58,1.3-1.17s-.5-1.14-1-1.43c-1.08-.58-1.94-.53-2.48.66Z"/><path class="cls-5" d="M57.5,27.68a2.11,2.11,0,0,1,.23-1.13,10,10,0,0,1,.75-1.41c.21-.31.34-.64.54-1s.56-.85.8-1.32A9.91,9.91,0,0,1,61,21.23a5.91,5.91,0,0,0,.76-1.09c.17-.33.44-.58.62-.9s.38-.87.59-1.29a14,14,0,0,1,.73-1.31,3.75,3.75,0,0,1,.67-.86,4.74,4.74,0,0,1,.65-.55c.53-.23.8,0,1.07.44a5.65,5.65,0,0,1,.56,2.77,10.32,10.32,0,0,1-.54,2.91,11.73,11.73,0,0,1-.95,1.87c-.64,1.14-1.42,2.19-2.17,3.26A8.75,8.75,0,0,1,61.2,28.1a3.78,3.78,0,0,1-1.27.67A1.92,1.92,0,0,1,59,29a6.51,6.51,0,0,1-.77-.31C57.62,28.43,57.33,27.89,57.5,27.68Z"/><path class="cls-5" d="M55.09,28.56c-.37.19-.77.32-.93.74,0,.11-.12.35,0,.47.29.43,1.34-.15,1.58-.39s.5-.67.27-1a.59.59,0,0,0-.88-.06Z"/><path class="cls-5" d="M74.44,12.93a2.29,2.29,0,0,0-.69.45,2.16,2.16,0,0,0-.21.55A9.48,9.48,0,0,0,73,16.08c-.07.72-.09,2,.75,2.29,1.63.58,4-.6,4.16-2.43a4.35,4.35,0,0,0-1.1-2.81,6.29,6.29,0,0,0-1-1.14,1.29,1.29,0,0,0-1-.27C74.25,11.83,73.82,12.4,74.44,12.93Z"/><path class="cls-5" d="M74.11,21.89c0-.36,0-.45.23-.68a1.77,1.77,0,0,1,.54-.4c.38-.13.64.16.66.53s0,.84-.23,1-1.27,0-1.2-.38Z"/><path class="cls-5" d="M86,14.46c-.16.68-.14,1.38-.27,2.07A23.78,23.78,0,0,0,85.37,20c0,.6,0,1.19,0,1.79A16,16,0,0,0,85.27,24a5,5,0,0,0,.83,2.71c.45.53,1.08.34,1.67.12A7,7,0,0,0,89.09,26a6.65,6.65,0,0,0,.93-.73,9.86,9.86,0,0,0,3-4.3,8.09,8.09,0,0,0,.44-4,5.11,5.11,0,0,0-1.1-2.28,5.26,5.26,0,0,0-1.54-1.15,5.66,5.66,0,0,0-1.53-.4A6.41,6.41,0,0,0,88,12.92a7.32,7.32,0,0,0-1.23.12C85.94,13.2,85.73,14.34,86,14.46Z"/><path class="cls-5" d="M87.33,28.66c.16-.47.5-1,1.06-.7a.84.84,0,0,1,.43,1.09.74.74,0,0,1-.85.36,1.27,1.27,0,0,1-.53-.42c-.2-.26,0-.47,0-.76Z"/><path class="cls-5" d="M88.86,40.36a5.64,5.64,0,0,0-1.27.27.84.84,0,0,1-.15.26c-.09.12-.35.27-.32.44a2.44,2.44,0,0,0,1.82-.4,3.52,3.52,0,0,0,.7-.46,2.79,2.79,0,0,0,.37-.4c.17-.31,0-.48-.33-.48s-1.12.26-1.14.66Z"/><path class="cls-5" d="M107,38.5a2.21,2.21,0,0,1-.24,1.07,2.68,2.68,0,0,0-.32,1.29c.15,1,1.58.83,2.31.73a3.78,3.78,0,0,0,2.3-.91,2.36,2.36,0,0,0,.84-1.55c.15-1.1.41-3-1.2-2.93a3.49,3.49,0,0,0-1.86.68,4.37,4.37,0,0,0-1,.95C107.49,38.28,107.07,38.64,107,38.5Z"/><path class="cls-5" d="M95.64,98a6.2,6.2,0,0,1,2.62-3.71c.32-.2.6-.46,1-.26s.26.54.16.86a4.8,4.8,0,0,1-.81,1.35c-.32.36-.69.72-1,1a1.69,1.69,0,0,1-.76.49A4.15,4.15,0,0,0,95.64,98Z"/><path class="cls-5" d="M40,99.71c0-.59.36-.87.83-1.25a10.17,10.17,0,0,1,3.47-1.76,6.38,6.38,0,0,1,3.46-.27,1.91,1.91,0,0,1,1.33.89c.37.88-.58,2.17-1.28,2.66a11.62,11.62,0,0,1-3.16,1.1,7.15,7.15,0,0,1-2.91.24,4,4,0,0,1-1-.19c-.3-.12-.65-.13-.94-.28s-.63-.38-.65-.7a1.21,1.21,0,0,1,.13-.56C39.43,99.31,39.79,99.28,40,99.71Z"/></g><g class="cls-8"><path class="cls-9" d="M105.42,34.55c-.35.24-1,.58-.92,1.12.06.25.2.47.28.71a2.88,2.88,0,0,1,.13.65,2,2,0,0,0,.41,1c.16.18.33,0,.44-.17a1.21,1.21,0,0,0,.26-.59,4,4,0,0,1,.1-.85c0-.11.11-.21.14-.32a1.84,1.84,0,0,0,0-.47A1.17,1.17,0,0,0,105.42,34.55Z"/><path class="cls-9" d="M99.72,65.3c-.06,0-.14,0-.17.12a.23.23,0,0,0,0,.11c0,.18.22.25.34.29a1.34,1.34,0,0,0,1-.11,1,1,0,0,0,.44-.65,1,1,0,0,0-1.37-.88.65.65,0,0,0-.23.26c0,.09,0,.19,0,.28s-.12.21-.1.35A.4.4,0,0,0,99.72,65.3Z"/><path class="cls-9" d="M101.66,65.88a.18.18,0,0,1,.1-.18.15.15,0,0,1,.2,0A.27.27,0,0,1,102,66a.29.29,0,0,1-.25.08.23.23,0,0,1-.16-.23Z"/><path class="cls-9" d="M106.45,58.61a.48.48,0,0,0-.32.15.27.27,0,0,0-.08.19,1,1,0,0,0,.33.57.46.46,0,0,0,.4.07,1.12,1.12,0,0,0,.33-.22,1.44,1.44,0,0,0,.27-.22.54.54,0,0,0,.24-.52.58.58,0,0,0-.4-.43.79.79,0,0,0-.4,0C106.69,58.28,106.57,58.3,106.45,58.61Z"/><path class="cls-9" d="M105.55,59.25a.76.76,0,0,1,.26.16c0,.05,0,.1,0,.15s-.17,0-.22,0a.3.3,0,0,1-.17-.16s-.07-.14,0-.13Z"/><path class="cls-9" d="M94.92,63.18c-.09.11-.2.23-.13.4s.26.18.4.16.15,0,.19-.12a2.5,2.5,0,0,0,.07-.26c.07-.21.29-.3.18-.55a.36.36,0,0,0-.27-.21c-.2,0-.36.18-.47.34Z"/><path class="cls-9" d="M66.08,83.74c.06-.13.13-.37.35-.45a.6.6,0,0,1,.42,0c.34,0,.67.16.45.49a1.08,1.08,0,0,1-.62.35c-.2,0-.57,0-.55-.2Z"/><path class="cls-9" d="M86.38,13.14c-.08.31-.18.68.17.89s.59,0,.8-.16A2.19,2.19,0,0,0,88,12.71c0-.4-.43-.82-.79-.87-.74-.09-1.14,1.09-1.18,1.64Z"/><path class="cls-9" d="M84.74,79.94a1.61,1.61,0,0,0-.24,1.17c0,.24,0,.57.35.65.76.19,1.54-1.22,1.75-1.67a2.34,2.34,0,0,0,.23-1.17,1,1,0,0,0-.44-.75,1.14,1.14,0,0,0-1,.35c-.56.57-.52,1.23-.83,1.84Z"/><path class="cls-9" d="M84.34,79.88a2.86,2.86,0,0,0-.58.16c-.09,0-.24.13-.27.22a.26.26,0,0,0,.12.29.37.37,0,0,0,.28,0,.77.77,0,0,0,.19-.17,2.26,2.26,0,0,0,.23-.31.65.65,0,0,0,.1-.15c0-.09,0-.11-.06-.17Z"/><path class="cls-9" d="M83.48,83.24l.25.08c0,.08,0,.18-.11.24a.57.57,0,0,1-.34,0c-.11,0-.17-.09-.16-.19s.16-.17.29-.2Z"/><path class="cls-9" d="M70.66,86.07c0,.09,0,.16.11.2a.56.56,0,0,0,.51-.11c.18-.18.34-.49.23-.67a.4.4,0,0,0-.51,0,1.36,1.36,0,0,0-.25.22.48.48,0,0,0-.09.39Z"/><path class="cls-9" d="M57.19,64.24c-.09.08-.14.11-.16.22a.5.5,0,0,0,0,.38,1.33,1.33,0,0,0,.77.44.68.68,0,0,0,.63-.12.9.9,0,0,0,.4-.63.61.61,0,0,0-.26-.66,1.94,1.94,0,0,0-.71-.34.63.63,0,0,0-.54.17C57.2,63.83,57,64.06,57.19,64.24Z"/><path class="cls-9" d="M59.17,65.13c0-.08,0-.16.08-.18a.5.5,0,0,1,.36.14.48.48,0,0,1,.1.28.26.26,0,0,1-.13.16.23.23,0,0,1-.28,0c-.07,0-.22-.12-.2-.21Z"/><path class="cls-9" d="M21.17,57.38a4,4,0,0,1-.79-2.67c0-.41,0-1.15.56-1.09.78.07,1.18,1.28,1.4,1.89a6.25,6.25,0,0,1,.52,2.79C22.7,59.63,21,57,20.78,56.74Z"/><path class="cls-9" d="M22.85,53a1.9,1.9,0,0,0,1,2.12c.3.08.41-.1.57-.38a1.08,1.08,0,0,0,.14-.9,2.68,2.68,0,0,0-.36-.58,2,2,0,0,1-.21-.32c-.06-.13,0-.22-.14-.33-.23-.27-1.13-.48-1,.13Z"/><path class="cls-9" d="M31.36,107.74a2.52,2.52,0,0,1,1-1.2,5.08,5.08,0,0,1,1.63-.72,2.69,2.69,0,0,1,1.66.13c.51.27,1,.67,1.45,1a7,7,0,0,1,1.26.83A3.35,3.35,0,0,1,39.1,109a3.82,3.82,0,0,1,.17,2.49c-.28.65-.66.66-1.31.65a3.62,3.62,0,0,1-2.38-1.43,7.11,7.11,0,0,0-.86-1c-.42-.32-.85-.63-1.29-.92a14.29,14.29,0,0,1-1.23-.79C32,107.9,31.49,107.49,31.36,107.74Z"/><path class="cls-9" d="M47.1,66.44c-.05.34-.14.48.11.64a.42.42,0,0,0,.51,0c.19-.1.6-.5.54-.73-.1-.49-1.33-.51-1.26.08Z"/><path class="cls-9" d="M70,82.1c-.2-.92.73-2.23,1.78-3a8.15,8.15,0,0,1,5.43-1.06A3.19,3.19,0,0,1,80.06,80c.08.27,0,.55.09.82s.11.32-.2.5a9.27,9.27,0,0,1-2.79.83,16.68,16.68,0,0,1-2.87.31c-.81,0-1.58-.14-2.39-.17a7.16,7.16,0,0,1-1.16-.1C70.55,82.14,70.08,82.19,70,82.1Z"/><path class="cls-9" d="M77.71,76.5c.14.17.14.27.42.29a1.2,1.2,0,0,0,.61-.18c.23-.13.53-.43.42-.62s-1.51-.13-1.38.31Z"/><path class="cls-9" d="M98.45,58.94a1.86,1.86,0,0,1,.27-.7.58.58,0,0,1,.44-.09.88.88,0,0,1,.69.4,1.38,1.38,0,0,1,.29.45c.21,1-1.47.54-1.69-.06Z"/></g></g></g></g></svg>